<?xml version="1.0" standalone="no"?>
<!DOCTYPE svg PUBLIC "-//W3C//DTD SVG 20010904//EN"
 "http://www.w3.org/TR/2001/REC-SVG-20010904/DTD/svg10.dtd">
<svg version="1.0" xmlns="http://www.w3.org/2000/svg"
 width="300pt" height="300pt" viewBox="0 0 512.000000 512.000000"
 preserveAspectRatio="xMidYMid meet">
<metadata>
Created by potrace 1.16, written by Peter Selinger 2001-2019
</metadata>
<g transform="translate(0.000000,512.000000) scale(0.100000,-0.100000)"
fill="#ffffff" stroke="none">
<path d="M1 5017 l-2 -98 38 -33 c21 -19 52 -45 68 -60 l30 -26 -30 -25 c-16
-14 -33 -25 -37 -25 -3 0 -20 12 -37 26 l-31 26 0 -41 c0 -37 8 -50 68 -120
126 -146 124 -163 -31 -186 -36 -6 -37 -7 -37 -51 0 -33 3 -43 12 -38 55 32
157 106 162 116 3 7 4 2 3 -12 -2 -24 -22 -42 -151 -135 -22 -16 -27 -26 -24
-53 l3 -33 99 70 c55 39 103 71 107 71 4 0 21 -8 37 -17 l30 -17 -62 -31
c-185 -94 -247 -142 -203 -158 9 -3 9 -9 0 -26 -15 -23 -18 -131 -4 -131 5 0
43 -22 84 -49 151 -99 140 -170 -40 -259 l-53 -26 0 -53 0 -53 32 20 c38 23
64 26 70 8 3 -8 -16 -21 -46 -33 -49 -19 -51 -21 -54 -63 l-3 -44 45 31 c25
18 59 51 76 75 66 97 170 156 238 137 35 -10 220 -111 307 -167 119 -76 128
-120 52 -278 -26 -55 -45 -101 -43 -104 3 -2 49 -5 103 -6 l98 -1 0 65 c0 36
-9 93 -19 128 -14 47 -16 66 -8 74 22 22 82 -151 82 -235 0 -40 -5 -53 -29
-78 -25 -25 -37 -29 -85 -29 -133 0 -494 96 -571 151 -53 38 -121 132 -130
180 -12 62 -18 65 -69 35 -44 -26 -46 -28 -46 -74 0 -27 5 -53 11 -59 8 -8 8
-13 0 -17 -17 -11 -14 -66 4 -66 20 0 19 -27 -1 -38 -9 -5 -14 -18 -12 -30 3
-21 6 -20 71 19 53 32 72 38 80 29 15 -15 -16 -41 -95 -81 l-58 -29 0 -55 c0
-47 3 -57 25 -71 13 -9 42 -44 64 -79 133 -210 120 -344 -41 -415 l-47 -21 2
-114 c2 -98 4 -114 17 -109 65 28 111 32 206 18 53 -8 104 -19 114 -24 27 -14
60 -60 60 -82 0 -10 11 -30 25 -44 20 -20 28 -23 45 -14 30 16 24 50 -20 118
-58 91 -70 117 -70 158 0 55 47 94 164 135 106 38 104 33 25 100 l-47 40 -27
-27 c-23 -23 -32 -26 -73 -21 -61 7 -102 49 -102 106 0 48 26 82 100 130 79
51 384 175 403 164 19 -10 217 -271 217 -285 0 -25 -42 22 -155 174 -36 48
-56 68 -73 68 -39 0 -194 -83 -245 -132 -47 -44 -49 -49 -43 -85 5 -26 17 -46
39 -63 18 -14 55 -46 83 -72 l50 -48 80 41 c148 76 156 94 78 195 -47 61 -55
77 -43 85 32 20 49 9 118 -84 82 -110 78 -119 -102 -227 l-89 -52 29 -30 28
-29 15 23 c42 65 144 125 244 143 36 7 38 6 34 -16 -2 -20 -15 -28 -68 -46
-87 -29 -97 -36 -111 -82 -10 -34 -9 -45 5 -76 27 -55 11 -80 -95 -150 -90
-60 -129 -103 -129 -144 0 -50 133 -140 336 -229 119 -52 154 -86 154 -148 0
-30 -21 -64 -39 -64 -17 0 -31 26 -31 57 0 41 -15 51 -140 98 -52 19 -95 35
-96 35 0 0 18 -20 41 -44 67 -69 79 -157 34 -247 -17 -35 -76 -99 -91 -99 -4
0 2 -18 13 -40 24 -46 21 -97 -8 -149 -36 -62 -63 -29 -44 53 9 40 9 59 0 78
-10 24 -14 25 -97 24 -101 -1 -149 18 -201 81 -51 62 -57 104 -35 243 4 31 2
37 -29 57 -37 26 -57 29 -75 11 -27 -27 -7 -78 30 -78 22 0 23 -13 3 -30 -32
-26 -95 28 -95 82 0 43 23 79 72 114 51 37 234 124 242 116 18 -17 -4 -37 -94
-82 l-99 -50 41 -42 41 -43 28 26 c51 47 97 64 180 64 l75 -1 -56 37 c-173
112 -170 245 9 363 39 25 71 52 71 60 0 7 -31 41 -69 74 l-68 61 -99 -42
c-148 -64 -147 -63 -141 -103 3 -18 29 -67 58 -108 63 -91 70 -139 26 -183
-23 -23 -36 -28 -78 -28 -44 0 -54 4 -78 31 -18 20 -31 48 -35 77 -7 45 -19
57 -57 57 -17 0 -19 -5 -13 -37 4 -20 7 -85 8 -145 l1 -110 -32 -28 c-17 -15
-56 -35 -87 -44 -31 -9 -81 -23 -111 -32 -53 -15 -55 -17 -55 -49 0 -23 4 -33
12 -31 7 2 58 10 114 16 140 18 161 2 179 -128 8 -61 -5 -103 -39 -126 -32
-20 -142 -53 -209 -61 l-57 -7 0 -64 c0 -53 3 -65 21 -78 22 -15 17 -41 -7
-32 -10 4 -14 -4 -14 -29 0 -33 1 -34 25 -23 19 9 28 9 37 0 9 -9 9 -12 -3
-12 -19 -1 -65 -37 -57 -45 6 -6 266 59 275 69 2 2 -6 24 -17 50 -28 67 -27
130 4 161 27 27 173 75 228 75 90 0 146 -140 81 -202 -16 -14 -44 -34 -63 -43
-19 -10 -36 -19 -38 -20 -2 -1 24 -28 57 -60 69 -66 79 -86 57 -120 -27 -41
-85 -45 -121 -9 -22 23 -8 36 31 28 19 -3 34 -2 34 3 0 10 -49 58 -99 96 -35
25 -35 25 -70 7 -28 -14 -208 -74 -348 -116 -7 -2 -13 -9 -13 -15 0 -7 8 -9
23 -4 12 4 43 10 68 12 68 7 83 -12 75 -96 -3 -36 -9 -100 -12 -141 -7 -83
-18 -107 -40 -89 -8 6 -19 9 -27 6 -7 -2 -28 9 -47 25 l-35 29 -3 -43 c-2 -24
1 -44 7 -46 14 -5 14 -35 0 -49 -6 -6 -9 -17 -7 -26 3 -12 10 -12 57 3 66 22
105 50 109 79 5 30 34 23 46 -11 18 -52 -32 -96 -149 -128 -68 -19 -79 -37
-35 -62 38 -22 38 -42 0 -65 l-30 -17 0 -131 1 -130 62 -68 62 -69 33 19 c31
17 33 17 43 0 8 -13 23 -17 62 -17 l53 0 -4 33 c-5 41 20 69 56 65 19 -2 32
-15 50 -51 24 -46 26 -47 71 -47 41 0 50 4 69 30 29 38 53 38 85 0 19 -22 34
-30 60 -30 31 0 33 2 29 29 -3 23 1 32 19 41 20 11 25 10 41 -11 11 -12 17
-31 15 -41 -4 -15 1 -18 29 -18 l35 0 -32 39 c-17 22 -28 44 -24 50 14 23 46
9 86 -39 l42 -50 74 0 c43 0 103 8 145 20 91 25 114 25 135 0 16 -19 30 -20
220 -20 111 0 212 4 225 9 13 4 55 19 95 32 l71 23 -28 40 c-16 23 -40 55 -54
71 l-24 30 -32 -30 c-18 -16 -39 -44 -46 -62 -17 -40 -28 -46 -134 -67 -146
-30 -237 -11 -204 42 16 25 43 27 69 2 l23 -21 93 21 c92 22 124 39 131 71 2
9 -30 58 -70 109 -51 65 -70 96 -62 104 6 6 13 6 18 1 5 -6 37 -45 72 -88 58
-71 65 -77 77 -61 7 10 13 23 13 28 0 15 -65 96 -97 121 -23 19 -23 22 -9 34
24 20 40 9 88 -60 24 -35 46 -68 51 -74 13 -18 27 18 27 71 0 40 -6 60 -30 96
-27 41 -134 128 -157 128 -10 0 -129 -243 -158 -321 -22 -61 -67 -115 -117
-140 -46 -23 -246 -76 -323 -85 -45 -5 -53 -3 -74 19 -28 31 -20 48 17 41 28
-6 148 19 275 57 79 24 132 66 148 117 9 32 7 45 -15 95 -30 67 -32 80 -9 75
9 -2 23 -23 33 -52 l16 -48 56 114 c76 157 75 148 23 180 l-44 27 -33 -62
c-59 -110 -81 -125 -263 -180 -88 -26 -172 -47 -186 -47 -59 0 -121 66 -160
168 -31 85 -35 120 -14 128 30 12 46 -8 75 -88 35 -100 63 -137 105 -138 27 0
278 76 304 92 32 20 25 39 -35 98 -31 30 -85 90 -121 133 -35 42 -68 77 -73
77 -13 0 -63 -138 -56 -155 8 -21 25 -19 71 10 73 45 91 26 23 -24 -51 -37
-98 -41 -129 -10 l-22 22 7 -29 c4 -16 9 -37 12 -46 8 -28 -15 -21 -26 8 -17
42 1 132 47 236 l25 56 -76 100 c-109 144 -167 188 -216 162 -18 -10 -25 -9
-37 3 -13 13 -13 17 6 36 28 28 56 26 116 -8 71 -41 137 -102 179 -166 20 -30
40 -56 44 -59 4 -2 21 21 37 52 17 31 53 81 80 110 83 85 125 71 185 -60 56
-125 32 -149 -28 -28 -22 45 -44 76 -55 78 -18 4 -77 -51 -77 -72 0 -16 248
-291 263 -291 23 0 58 106 54 167 -6 108 -104 265 -190 307 -60 29 -87 26
-147 -15 -38 -26 -58 -34 -76 -30 -28 7 -42 32 -27 47 6 6 -3 34 -24 75 -36
71 -40 94 -20 94 7 0 24 -33 37 -73 13 -39 25 -74 27 -76 1 -1 28 13 60 33 47
29 68 36 108 36 100 0 210 -94 282 -240 32 -65 38 -86 41 -160 4 -81 2 -88
-31 -153 l-34 -69 41 -29 41 -30 29 36 c36 44 74 65 122 65 29 0 44 -8 75 -39
42 -42 50 -78 23 -105 -21 -22 -37 -10 -23 16 16 30 -17 72 -61 76 -34 4 -83
-31 -78 -54 2 -7 41 -43 88 -81 101 -81 134 -135 134 -222 1 -31 -3 -67 -7
-81 -6 -21 3 -39 58 -113 85 -113 122 -137 212 -137 l67 0 -27 28 c-15 15 -27
32 -27 38 0 5 22 37 48 71 26 33 59 84 75 112 28 52 76 91 113 91 31 0 71 -49
85 -103 6 -26 13 -47 16 -47 2 0 26 11 53 25 51 26 80 32 80 16 0 -16 -24 -35
-95 -76 -37 -22 -90 -65 -117 -95 l-49 -55 40 -3 c25 -2 50 3 66 14 24 16 27
16 45 -1 25 -23 52 -13 98 38 80 90 102 107 138 107 24 0 43 -8 61 -26 23 -23
25 -31 20 -80 -5 -48 -3 -54 13 -54 13 0 20 11 25 37 15 81 138 151 246 141
l50 -5 -7 41 c-11 64 -6 123 15 163 l19 37 -74 83 c-89 100 -110 140 -120 224
-4 35 -13 81 -20 103 -29 80 23 163 134 218 116 57 205 39 227 -48 14 -54 20
-61 58 -68 44 -8 103 -59 115 -99 50 -162 48 -145 22 -192 -34 -62 -25 -143
28 -258 32 -69 46 -89 69 -97 71 -25 88 -52 115 -178 20 -94 23 -102 45 -102
18 0 23 5 23 28 1 35 29 98 65 140 21 25 26 39 22 62 -4 20 -1 36 12 51 l18
22 139 -22 c76 -12 140 -24 142 -26 3 -2 2 -12 -2 -21 -6 -15 -17 -16 -94 -11
-48 4 -104 10 -124 13 -38 7 -38 6 -38 -27 0 -25 -10 -45 -35 -73 -25 -28 -35
-49 -35 -72 0 -61 5 -64 91 -64 l79 0 0 48 c0 82 27 109 158 152 50 18 92 35
92 38 0 4 -7 26 -15 50 -13 37 -13 47 -1 76 15 37 58 58 92 45 40 -14 38 -46
-3 -68 l-22 -11 56 -165 56 -165 88 0 89 0 5 27 c18 87 121 223 170 223 32 0
33 -18 1 -29 -42 -16 -105 -111 -131 -198 -6 -20 -3 -23 23 -23 27 0 30 4 46
64 25 91 58 121 134 121 l57 0 7 85 c4 47 9 98 12 113 l6 29 -33 -22 c-133
-89 -275 -92 -327 -8 -49 79 -46 149 7 202 72 72 223 19 223 -78 0 -38 -31
-83 -68 -97 -42 -16 -19 -20 35 -6 57 15 136 62 204 123 26 23 61 50 78 60 17
10 31 22 31 27 0 5 -25 -6 -56 -23 l-56 -32 4 23 c2 17 18 32 56 52 51 28 52
29 52 73 0 24 -2 44 -4 44 -3 0 -42 -23 -87 -50 -46 -28 -99 -55 -120 -61 -33
-10 -41 -9 -83 16 -39 23 -53 26 -99 21 -28 -3 -99 -8 -157 -12 -99 -6 -107
-5 -140 18 -69 46 -85 118 -51 227 39 124 90 181 163 181 46 0 85 -27 154
-106 32 -37 90 -100 127 -140 60 -64 68 -76 65 -106 -3 -30 -1 -33 23 -31 15
1 68 25 118 53 l92 52 -3 60 c-3 68 -18 85 -61 74 -22 -5 -27 -12 -27 -36 0
-34 -15 -40 -25 -10 -14 43 51 99 96 85 17 -6 19 -1 19 43 l0 49 -52 -18 c-78
-26 -221 -54 -241 -46 -14 5 -17 22 -17 107 0 130 -5 140 -74 140 -118 0 -196
29 -196 73 0 17 5 19 38 13 20 -3 83 -9 140 -13 140 -8 144 -12 153 -136 4
-53 10 -101 13 -106 8 -12 108 11 180 43 l56 25 0 47 0 46 -54 -46 c-54 -46
-96 -60 -96 -31 0 9 12 18 29 21 28 6 81 47 81 64 0 22 -15 42 -42 56 -24 12
-27 18 -17 30 17 21 47 17 74 -11 l25 -24 0 49 0 50 -35 0 c-23 0 -35 5 -35
14 0 15 21 26 51 26 15 0 19 7 19 39 l0 40 -35 -6 c-28 -4 -35 -2 -35 10 0 10
12 18 35 23 28 5 35 11 35 30 0 23 -2 24 -56 18 -46 -6 -56 -4 -52 7 3 8 24
16 54 19 33 3 50 10 52 20 2 12 -10 14 -70 12 l-73 -3 3 -97 c2 -53 -3 -137
-11 -185 -9 -53 -11 -102 -7 -123 9 -40 -10 -65 -34 -45 -12 10 -14 52 -10
239 4 223 4 227 27 239 12 7 36 13 53 13 17 0 52 3 78 6 l46 7 0 76 c0 42 -3
86 -6 98 l-6 21 -66 -27 c-37 -15 -91 -36 -120 -45 -39 -13 -69 -34 -121 -86
-38 -37 -94 -87 -126 -110 -31 -23 -61 -53 -66 -68 -10 -25 -26 -42 -41 -42
-4 0 -42 59 -85 131 -43 73 -88 138 -100 146 -30 20 -58 3 -123 -75 -51 -61
-52 -63 -34 -83 45 -50 4 -139 -63 -139 -46 0 -69 14 -82 50 -14 40 1 77 36
92 38 16 37 16 23 33 -10 12 -1 27 56 91 37 41 80 82 95 90 45 23 107 18 145
-11 28 -22 36 -24 58 -13 14 6 26 14 26 17 0 4 -34 37 -75 75 -121 109 -127
132 -50 184 l34 24 78 -81 78 -81 55 0 55 0 -32 -26 -33 -25 35 -46 c19 -25
35 -49 35 -53 0 -11 -22 -28 -53 -39 -35 -14 -48 10 -22 40 18 19 18 20 -6 47
-14 15 -63 69 -109 120 -82 92 -102 104 -124 70 -9 -15 5 -33 87 -116 53 -55
97 -105 97 -112 0 -6 -13 -24 -29 -39 l-29 -27 35 -63 c20 -34 42 -65 49 -68
16 -6 73 38 175 133 76 72 87 78 176 105 37 12 91 32 120 44 l53 24 0 60 c0
34 -3 61 -6 61 -4 0 -31 -14 -61 -31 -47 -27 -62 -31 -108 -27 -59 5 -107 34
-147 90 -36 51 -33 139 7 204 28 46 40 54 170 119 86 43 141 76 143 87 2 13
-14 8 -76 -24 l-79 -40 -39 18 c-54 26 -128 99 -120 119 3 9 6 52 6 96 0 71 3
83 25 104 41 42 80 34 159 -32 37 -32 81 -69 97 -82 l29 -24 0 41 c0 31 -6 48
-26 67 -29 29 -27 64 7 101 16 18 19 36 19 137 0 64 -3 117 -7 117 -3 0 -65
-35 -137 -79 -134 -80 -287 -161 -306 -161 -33 0 3 32 88 79 263 146 362 205
362 217 0 7 -25 -1 -67 -22 -38 -19 -76 -34 -87 -34 -21 0 -201 -100 -422
-236 -187 -115 -199 -121 -219 -104 -23 19 -18 37 18 63 34 26 277 172 418
252 79 45 85 50 81 77 -10 68 119 240 225 300 53 30 53 30 53 79 l0 49 -110
-55 c-91 -46 -112 -53 -116 -40 -4 9 -5 17 -3 19 2 2 55 29 117 60 l112 56 0
44 0 44 -117 -51 c-64 -27 -138 -52 -163 -55 -58 -5 -88 18 -161 124 -30 43
-61 77 -74 80 -14 3 -65 -16 -152 -59 -72 -36 -136 -66 -142 -68 -9 -3 -9 -15
0 -50 10 -36 9 -77 -4 -215 -21 -213 -22 -382 -3 -409 34 -50 31 -63 -28 -125
-49 -51 -55 -62 -50 -88 8 -41 -27 -77 -144 -147 -101 -61 -137 -67 -137 -26
0 20 15 32 80 68 44 24 95 56 114 70 30 23 33 30 28 64 -5 36 -2 41 39 74 47
38 53 59 29 91 -8 10 -15 28 -16 39 -1 11 -5 0 -10 -25 -10 -52 -38 -80 -80
-80 -24 0 -29 -4 -29 -25 0 -15 -14 -40 -33 -61 -59 -65 -139 -54 -274 37
-111 74 -154 138 -133 194 10 25 7 31 -24 60 -61 55 -73 129 -33 200 32 56 79
85 138 85 62 0 94 -13 150 -60 l47 -39 42 122 c90 257 135 311 244 286 l52
-11 158 76 c88 42 167 76 176 76 21 0 47 -29 93 -101 54 -87 74 -102 124 -95
23 3 98 33 167 67 109 54 126 65 126 86 0 13 -4 22 -9 19 -5 -3 -15 1 -22 10
-11 14 -10 19 9 34 16 13 22 29 22 59 0 40 -1 41 -32 41 -18 0 -57 -14 -85
-30 -58 -33 -64 -50 -38 -100 16 -31 23 -33 88 -30 20 1 37 -1 37 -3 0 -9 -90
-47 -111 -47 -12 0 -39 17 -60 39 -33 33 -39 45 -39 81 0 37 6 48 39 80 49 47
117 80 164 80 l37 0 0 96 c0 73 -3 93 -12 88 -7 -4 -35 -22 -63 -40 -72 -45
-171 -94 -192 -94 -10 0 -29 7 -41 16 -29 20 -30 89 -3 142 33 64 181 197 269
241 42 21 42 22 42 76 l0 56 -32 -17 c-18 -9 -81 -46 -140 -81 -78 -48 -112
-63 -127 -58 -34 10 -25 43 32 119 101 136 98 129 88 180 -9 49 -1 63 30 58
10 -2 19 6 22 18 3 11 10 20 16 20 22 0 22 -29 0 -59 -17 -24 -21 -39 -17 -75
3 -25 2 -46 -2 -46 -7 0 -119 -151 -129 -173 -2 -5 34 16 79 48 46 31 105 67
131 81 51 26 60 45 38 86 -8 14 -8 23 0 31 21 21 10 42 -47 89 -31 26 -78 65
-103 87 -44 39 -46 40 -87 29 -80 -20 -140 27 -128 102 6 39 6 40 -24 40 -27
0 -30 -3 -30 -33 0 -17 4 -47 9 -64 12 -42 -3 -53 -33 -24 -16 17 -21 32 -19
71 l1 50 -38 0 c-56 0 -64 -17 -34 -73 31 -59 84 -202 84 -228 0 -10 18 -37
39 -58 90 -90 55 -186 -104 -290 -39 -25 -101 -59 -138 -75 -62 -26 -70 -27
-84 -13 -26 26 -8 45 91 92 121 57 206 132 206 180 0 46 -29 79 -71 79 -19 0
-76 -13 -127 -29 -70 -21 -99 -36 -118 -58 -28 -33 -30 -52 -8 -106 14 -35 14
-42 0 -69 -14 -27 -55 -62 -73 -62 -4 0 -15 5 -23 10 -12 7 -7 15 24 42 l39
34 -17 31 c-9 18 -16 50 -16 71 0 39 0 39 -45 46 -69 9 -252 84 -292 120 -20
17 -44 49 -54 71 -31 67 -21 202 17 240 20 19 27 19 54 -3 22 -18 22 -18 5
-76 -21 -73 -14 -137 19 -181 26 -34 106 -80 226 -130 l74 -32 21 30 c26 40
91 72 204 99 75 19 91 26 91 42 0 28 -39 166 -58 201 -8 17 -18 44 -22 60 -4
23 -12 31 -32 33 -23 3 -27 -2 -37 -43 -17 -67 -75 -125 -181 -179 -49 -26
-95 -43 -104 -40 -14 6 -53 94 -91 212 l-17 52 -154 0 -154 0 6 -27 c3 -16 26
-107 51 -203 48 -185 68 -266 78 -315 l7 -30 26 31 c15 17 36 43 48 59 22 32
54 30 54 -4 0 -27 -60 -113 -90 -128 -22 -11 -16 -13 53 -13 112 0 159 -15
217 -67 47 -42 62 -74 41 -88 -5 -3 -12 -1 -16 5 -14 22 -22 8 -15 -24 10 -43
-5 -73 -49 -103 -42 -28 -58 -29 -66 -3 -5 15 2 31 24 56 36 40 36 43 16 90
-23 55 -64 67 -196 58 -78 -5 -109 -10 -109 -19 0 -35 -96 -85 -162 -85 -25 0
-26 -2 -17 -32 22 -78 70 -194 89 -212 16 -16 24 -18 37 -10 24 15 34 71 22
117 -10 37 -15 41 -56 37 -17 -1 -23 4 -23 19 0 24 33 48 77 57 40 8 56 -16
73 -112 12 -65 11 -74 -8 -118 -37 -84 -131 -99 -178 -28 -36 53 -97 236 -90
269 6 25 2 33 -34 62 -45 36 -67 74 -100 176 -13 38 -38 103 -57 144 -55 120
-44 176 41 221 81 43 103 3 31 -56 -25 -20 -45 -43 -45 -50 0 -8 16 -46 35
-84 20 -39 47 -105 60 -148 41 -128 76 -169 153 -179 49 -7 105 18 121 53 6
14 11 46 11 72 0 49 -105 458 -123 480 -24 30 -103 -19 -90 -56 3 -9 25 -57
49 -107 59 -123 104 -258 104 -310 0 -51 -23 -83 -66 -91 -26 -5 -35 -1 -57
26 -15 17 -27 40 -27 50 0 11 -11 54 -24 96 -14 42 -22 82 -19 90 8 22 53 18
53 -5 0 -11 9 -41 20 -67 15 -34 19 -59 15 -89 -5 -31 -3 -44 9 -54 22 -19 46
-6 46 24 0 36 -63 201 -121 317 -30 61 -49 111 -49 132 l0 35 -47 -14 c-27 -8
-91 -32 -143 -54 -83 -35 -96 -43 -102 -69 -5 -17 -45 -70 -92 -119 -92 -99
-119 -152 -114 -224 l3 -44 40 1 c22 1 75 14 118 29 61 21 81 33 92 56 26 49
18 83 -31 142 -28 33 -30 45 -8 54 31 12 124 -106 124 -158 0 -17 -16 -46 -47
-83 -45 -53 -52 -57 -144 -86 -121 -38 -152 -38 -184 -4 -20 21 -25 38 -25 79
0 106 36 181 143 294 l57 62 0 84 c0 47 -4 85 -9 85 -5 0 -28 -7 -51 -15 -23
-8 -64 -15 -90 -15 -60 0 -101 31 -126 95 -15 41 -20 45 -50 45 -19 0 -34 -3
-34 -6 0 -3 16 -29 35 -58 43 -64 44 -91 6 -136 -37 -45 -52 -32 -17 14 14 19
26 38 26 42 0 4 -21 38 -47 76 -50 73 -71 82 -128 56 -19 -9 -28 -9 -37 0 -7
7 -32 12 -56 12 -36 0 -43 -3 -38 -16 19 -49 38 -143 33 -158 -4 -10 -15 -16
-24 -14 -14 2 -22 25 -37 96 l-19 92 -47 0 -48 0 20 -37 c30 -57 20 -152 -26
-246 -34 -69 -165 -257 -266 -381 l-48 -59 24 -21 c35 -30 41 -83 16 -138
l-20 -46 103 59 c56 33 107 59 113 59 9 0 26 -30 20 -35 -2 -1 -63 -35 -137
-76 -73 -40 -140 -84 -149 -97 -18 -27 -121 -82 -155 -82 -55 0 -77 72 -29 92
52 23 60 35 51 81 -13 69 -11 89 9 85 17 -3 33 -41 45 -105 6 -29 3 -35 -31
-58 -40 -28 -37 -33 7 -10 25 13 72 68 123 144 10 14 18 43 18 63 0 48 -28 57
-85 28 -53 -27 -94 -25 -140 5 -35 25 -38 25 -62 9 l-25 -16 6 -132 c4 -72 9
-163 12 -203 6 -70 5 -73 -23 -102 -34 -33 -101 -55 -142 -46 -25 5 -29 2 -46
-35 -38 -84 -220 -210 -304 -210 -44 0 -219 61 -426 147 -167 70 -175 75 -175
116 0 47 54 133 106 170 43 30 44 32 44 84 0 60 25 191 45 240 13 31 21 34
232 102 120 39 238 73 263 77 25 4 54 13 65 20 11 8 23 14 27 14 15 0 38 -33
38 -55 0 -32 -32 -41 -75 -20 -29 13 -42 14 -77 5 -56 -15 -177 -60 -182 -68
-4 -8 58 -259 66 -268 4 -3 35 2 70 12 34 9 78 19 96 22 31 4 33 2 30 -19 -2
-19 -18 -28 -88 -53 -47 -16 -87 -31 -88 -32 -5 -4 25 -134 32 -141 3 -4 32
14 64 39 83 66 158 108 192 108 19 0 30 6 33 18 3 9 6 86 6 171 2 203 12 223
117 243 33 6 64 12 71 14 8 2 4 22 -13 66 -14 35 -36 99 -48 143 -13 44 -31
84 -39 89 -11 7 -39 2 -95 -17 -94 -32 -122 -33 -153 -8 -23 18 -24 26 -24
128 0 89 -3 113 -19 136 -17 25 -23 27 -87 27 -38 0 -69 -2 -69 -5 0 -3 17
-40 38 -83 21 -42 49 -104 62 -137 41 -106 84 -132 201 -121 54 5 68 3 73 -9
3 -8 3 -21 0 -29 -13 -33 -176 -48 -237 -22 -48 20 -72 53 -101 141 -15 44
-44 121 -65 170 l-37 90 -78 3 c-66 2 -80 0 -92 -15 -20 -27 -17 -51 19 -138
32 -75 37 -81 86 -106 97 -50 105 -91 36 -190 -24 -35 -41 -65 -36 -67 4 -1
28 6 52 16 117 51 147 54 379 48 19 0 52 3 73 7 34 7 38 6 49 -19 10 -22 10
-28 -5 -39 -28 -20 -116 -27 -194 -15 -88 14 -144 5 -280 -45 -253 -93 -315
-117 -366 -140 -56 -24 -56 -25 -46 -55 13 -35 -2 -85 -28 -94 -13 -5 -12 -9
6 -24 27 -23 38 -70 18 -78 -8 -3 -69 22 -136 55 -82 42 -121 57 -121 47 0 -8
43 -59 95 -114 128 -135 128 -146 -12 -216 -40 -20 -73 -39 -73 -43 0 -4 11
-23 24 -42 13 -20 39 -61 58 -91 32 -51 47 -63 199 -152 90 -53 172 -100 181
-103 12 -5 35 5 68 29 58 41 73 43 118 16 54 -33 36 -61 -22 -34 l-35 17 -53
-36 c-29 -21 -61 -37 -71 -37 -18 0 -390 206 -395 219 -1 4 -29 54 -62 111
-33 58 -60 110 -60 116 0 6 45 32 100 58 55 26 100 52 100 57 0 6 -38 52 -85
102 -47 51 -95 113 -106 138 -20 43 -28 50 -122 95 -110 53 -137 82 -137 146
0 47 39 81 117 104 102 30 218 4 294 -64 28 -25 51 -43 53 -41 2 2 44 87 94
189 l90 185 -21 40 c-12 21 -26 38 -32 37 -5 -2 -44 -65 -85 -142 -41 -77 -81
-142 -89 -145 -18 -7 -41 13 -41 35 0 15 93 197 142 278 11 18 18 36 14 39
-22 22 -201 -82 -224 -130 -12 -25 -10 -34 18 -91 34 -72 31 -102 -15 -132
-50 -32 -111 -3 -149 74 -17 32 -24 36 -61 32 -23 -2 -127 -54 -168 -82 -27
-20 -57 -19 -57 2 0 6 27 29 59 53 33 23 60 47 60 54 1 7 -33 48 -74 92 -58
63 -75 87 -75 110 0 16 4 32 8 35 12 7 69 -55 132 -141 52 -73 62 -81 89 -64
17 11 17 11 -129 180 -85 99 -98 109 -126 108 l-32 -2 -1 -98z m1077 56 c5
-17 -26 -29 -40 -15 -6 6 -7 15 -3 22 9 14 37 9 43 -7z m1632 -85 c0 -10 -4
-18 -10 -18 -12 0 -31 70 -23 84 7 11 32 -39 33 -66z m-1556 25 c4 -9 3 -20
-2 -25 -11 -11 -42 1 -42 16 0 29 34 36 44 9z m3376 -53 c0 -22 -11 -42 -37
-70 -32 -33 -58 -46 -157 -80 -122 -41 -146 -42 -146 -1 0 32 19 43 115 67
110 28 135 39 185 83 19 17 36 30 38 31 1 0 2 -14 2 -30z m-3840 -10 c-12 -22
-30 -18 -30 6 0 8 9 14 20 14 18 0 19 -3 10 -20z m2265 -70 c0 -18 -6 -26 -23
-28 -13 -2 -25 3 -28 12 -10 26 4 48 28 44 17 -2 23 -10 23 -28z m-221 9 c146
-40 154 -185 14 -243 -49 -21 -84 -20 -134 3 -86 39 -143 113 -130 167 8 30
66 59 147 73 30 5 56 9 59 10 3 0 23 -4 44 -10z m394 -5 c32 -22 26 -60 -9
-56 -21 2 -42 -16 -118 -98 -70 -76 -99 -100 -115 -98 -13 2 -22 12 -24 26 -3
19 20 47 106 133 60 60 115 109 123 109 8 0 25 -7 37 -16z m1762 -123 c0 -14
-18 -23 -30 -16 -6 4 -8 11 -5 16 8 12 35 12 35 0z m-4576 -103 c8 -14 7 -21
-6 -34 -30 -31 -84 10 -57 43 16 18 49 13 63 -9z m2909 -67 c44 -42 49 -51 38
-65 -19 -22 -26 -21 -70 19 -46 42 -55 44 -47 9 6 -21 4 -25 -11 -22 -27 5
-29 62 -4 87 12 12 26 21 32 21 6 0 34 -22 62 -49z m1337 13 c0 -14 -21 -19
-33 -7 -9 9 13 34 24 27 5 -3 9 -12 9 -20z m-2012 -71 c64 -30 126 -63 138
-74 20 -19 21 -19 59 1 52 26 88 25 122 -4 27 -23 27 -25 15 -67 -7 -24 -19
-66 -27 -94 -8 -27 -22 -99 -31 -160 -12 -85 -22 -119 -42 -148 -32 -48 -59
-67 -93 -67 -30 0 -139 67 -162 100 -14 21 -14 27 -1 59 20 49 143 229 173
252 34 27 59 24 67 -6 8 -33 1 -40 -25 -26 -19 10 -27 2 -93 -86 -40 -54 -80
-114 -90 -133 -18 -34 -18 -35 2 -52 26 -21 41 -16 62 20 9 15 30 46 48 70 26
36 34 41 46 31 13 -10 12 -15 -3 -38 -76 -116 -79 -122 -58 -137 24 -18 69
-18 84 0 10 12 8 17 -8 26 -32 17 -27 43 7 36 l27 -7 23 129 c13 71 32 159 43
196 11 37 18 74 15 82 -18 46 -138 -19 -268 -144 -73 -69 -92 -83 -115 -80
-38 4 -40 27 -9 94 24 51 25 58 11 84 -19 36 -82 88 -119 98 -43 11 -54 34
-32 67 38 58 71 55 234 -22z m1918 56 c10 -17 -13 -36 -27 -22 -12 12 -4 33
11 33 5 0 12 -5 16 -11z m-238 -26 c-2 -10 -10 -18 -18 -18 -8 0 -16 8 -18 18
-2 12 3 17 18 17 15 0 20 -5 18 -17z m-2794 -134 c-4 -109 -45 -179 -105 -179
-34 0 -69 24 -69 47 0 21 35 86 59 107 27 24 27 7 1 -44 -24 -48 -25 -66 -4
-74 31 -12 61 19 68 70 10 76 26 126 39 121 7 -2 11 -22 11 -48z m3176 -40 c3
-13 27 -68 54 -121 52 -105 63 -172 37 -221 -18 -34 -65 -54 -86 -37 -20 17
-19 23 11 55 36 39 29 85 -36 209 l-51 99 22 24 c27 28 42 25 49 -8z m-1220
-18 c5 -11 10 -24 10 -29 0 -5 -36 -16 -81 -26 -94 -20 -248 -62 -301 -82 -32
-11 -38 -11 -49 2 -19 23 1 47 47 58 21 5 107 29 189 52 83 24 155 43 162 43
7 1 17 -8 23 -18z m-1900 -21 c0 -13 -7 -20 -20 -20 -13 0 -20 7 -20 20 0 13
7 20 20 20 13 0 20 -7 20 -20z m2593 -19 c5 -5 7 -17 4 -25 -5 -12 -21 -16
-67 -16 -71 0 -71 -1 -35 -96 30 -80 31 -88 5 -114 -18 -18 -19 -26 -11 -58 6
-21 17 -46 25 -57 13 -18 18 -19 58 -6 23 7 77 22 118 33 41 11 94 34 117 50
82 56 99 148 27 148 -31 0 -47 -24 -39 -59 10 -44 -2 -73 -28 -69 -18 2 -22 9
-20 34 2 21 -2 34 -12 38 -9 3 -15 18 -15 36 0 25 10 37 61 75 33 25 79 50
100 55 68 19 108 -11 54 -40 -14 -7 -25 -17 -25 -20 0 -18 43 -58 79 -75 41
-18 52 -40 30 -62 -8 -8 -19 -9 -38 -2 -21 9 -28 7 -36 -7 -21 -37 -97 -112
-126 -124 -20 -9 -28 -18 -24 -29 15 -49 22 -117 14 -133 -20 -37 -45 -20 -78
51 l-32 69 -80 -29 c-173 -63 -316 -134 -325 -162 -5 -17 6 -32 55 -78 63 -60
73 -85 44 -111 -37 -32 -227 -118 -260 -118 -90 0 -202 106 -239 225 l-19 60
-115 2 c-151 4 -162 7 -158 41 l3 27 135 3 c94 1 143 -2 160 -11 31 -16 55
-63 75 -152 22 -101 83 -155 172 -155 32 0 51 9 101 48 33 26 61 53 61 60 1 7
-21 37 -49 66 -88 93 -66 140 98 219 83 39 102 52 96 66 -35 83 -42 154 -15
170 6 4 4 29 -5 66 -24 105 -17 144 31 174 22 13 112 8 128 -8z m-3716 -118
c46 -49 83 -93 83 -99 0 -6 -26 -23 -57 -38 -32 -15 -71 -38 -87 -51 l-29 -23
28 -64 c16 -35 29 -82 29 -106 1 -39 -3 -48 -37 -77 -43 -37 -125 -63 -152
-47 -14 7 -11 11 17 21 69 26 97 44 108 71 15 35 11 48 -58 190 -45 93 -57
127 -60 177 -4 61 -3 64 31 98 26 26 44 35 68 35 30 0 45 -11 116 -87z m1507
-15 c7 -47 -7 -75 -24 -48 -12 20 -22 98 -14 111 11 19 31 -13 38 -63z m1293
46 c4 -11 -1 -22 -12 -31 -16 -11 -21 -11 -34 1 -12 12 -12 18 -1 30 16 21 39
20 47 0z m289 2 c35 -25 88 -144 88 -200 1 -45 -2 -51 -48 -93 -27 -24 -91
-65 -143 -90 -82 -40 -104 -46 -178 -51 -68 -4 -89 -2 -110 12 -26 17 -34 46
-12 46 7 0 18 -5 24 -11 17 -17 110 -13 163 6 85 30 208 113 230 156 8 13 7
32 0 60 l-11 42 -55 -7 c-55 -6 -139 -39 -151 -59 -4 -6 0 -8 9 -4 101 38 178
50 178 28 0 -4 -46 -25 -102 -46 -127 -47 -172 -69 -320 -156 -113 -67 -143
-80 -136 -59 6 20 335 274 384 296 28 13 79 30 114 37 l64 13 -28 21 c-29 23
-51 23 -126 1 -110 -33 -232 -124 -294 -220 -20 -31 -46 -37 -46 -12 0 33 108
166 169 208 23 16 80 44 129 62 95 36 174 44 208 20z m1639 -81 c0 -13 -8 -21
-22 -23 -17 -3 -23 2 -23 16 0 10 3 22 7 26 13 13 38 1 38 -19z m-2757 -97
c19 -99 20 -114 7 -127 -20 -21 -25 -12 -36 65 -21 156 -37 161 -41 14 -3 -84
-5 -95 -22 -98 -18 -4 -19 1 -13 87 3 50 2 91 -2 91 -17 0 -101 -60 -111 -81
-8 -14 -11 -61 -8 -135 3 -103 5 -115 27 -138 36 -39 76 -34 200 24 59 28 118
50 131 50 32 0 113 -82 108 -111 -5 -35 -23 -33 -49 6 -38 56 -56 55 -188 -9
-124 -60 -158 -66 -216 -39 -33 16 -36 16 -57 -4 -39 -35 -171 -133 -180 -133
-4 0 -36 24 -70 53 -72 61 -88 99 -63 147 28 55 91 58 128 8 27 -36 16 -73
-28 -99 -30 -18 -33 -24 -24 -40 10 -19 11 -19 40 -2 17 10 64 43 105 74 l75
56 3 134 c2 74 8 148 15 165 9 23 36 45 114 92 56 34 109 62 117 62 12 0 21
-27 38 -112z m1791 89 c13 -16 -4 -37 -31 -37 -21 0 -24 20 -6 38 15 15 23 15
37 -1z m-3604 -108 c0 -14 -93 -64 -131 -71 -10 -2 -20 4 -21 13 -3 10 17 25
64 46 72 33 88 35 88 12z m4297 -16 c24 -28 28 -50 17 -83 -16 -44 -3 -93 36
-145 39 -50 44 -75 16 -75 -48 0 -111 93 -111 163 0 21 6 53 14 71 15 36 6 66
-19 66 -8 0 -15 5 -15 10 0 17 46 11 62 -7z m-2884 -79 c3 -42 -16 -72 -38
-59 -11 7 -14 88 -3 99 18 18 38 -1 41 -40z m608 -33 c69 -32 144 -139 144
-207 0 -48 -45 -92 -158 -154 -120 -66 -114 -70 50 -29 84 21 170 52 206 75
18 12 22 23 21 67 0 28 -6 88 -13 132 -14 84 -13 95 9 95 18 0 23 -17 40 -144
11 -83 12 -122 4 -151 -15 -53 4 -119 48 -173 75 -91 140 -104 250 -50 68 34
143 92 143 110 0 17 -83 87 -117 99 -47 15 -90 -2 -143 -56 -24 -25 -42 -45
-38 -45 3 0 26 9 52 21 79 34 164 10 126 -36 -11 -13 -24 -16 -65 -10 -46 5
-53 3 -75 -20 -29 -30 -43 -31 -81 -4 -22 16 -29 28 -29 54 0 30 8 41 63 86
78 66 137 93 180 84 79 -17 207 -128 207 -181 0 -48 -113 -135 -247 -190 -104
-42 -157 -29 -241 59 -56 60 -82 109 -82 153 0 21 -3 25 -17 18 -55 -24 -189
-65 -259 -79 -73 -15 -85 -15 -117 -1 -36 15 -55 50 -44 79 3 7 47 37 98 67
166 94 176 106 143 173 -25 50 -75 96 -110 103 -38 7 -93 -10 -220 -66 -68
-30 -92 -36 -106 -29 -37 20 -13 42 105 95 177 80 205 86 273 55z m1932 2 c-2
-10 -12 -18 -23 -18 -11 0 -21 8 -23 18 -3 13 3 17 23 17 20 0 26 -4 23 -17z
m-874 -38 c63 -30 86 -113 44 -152 -13 -12 -38 -24 -56 -28 -31 -6 -32 -9 -26
-41 8 -43 -10 -46 -34 -4 -9 16 -22 30 -29 30 -6 0 -23 14 -37 31 -48 57 -31
128 39 164 38 19 59 19 99 0z m-1734 -30 c17 -21 4 -48 -20 -42 -29 8 -101
-11 -138 -36 -44 -30 -75 -95 -66 -141 4 -23 2 -36 -5 -36 -20 0 -33 43 -29
91 7 65 43 110 119 148 67 34 119 40 139 16z m2280 -66 c0 -12 -29 -24 -37
-16 -3 4 -3 13 0 21 6 16 37 11 37 -5z m-117 -1 c6 -18 -11 -48 -27 -48 -8 0
-19 7 -26 15 -10 12 -10 18 0 30 15 18 47 20 53 3z m-3155 -112 c67 -43 122
-84 122 -92 0 -8 -5 -14 -10 -14 -8 0 -269 160 -289 176 -2 2 2 10 9 19 11 13
15 14 29 2 9 -8 71 -49 139 -91z m3025 52 c14 -21 2 -48 -22 -48 -30 0 -45 34
-25 55 18 18 33 16 47 -7z m-866 -10 c28 -26 30 -48 5 -48 -25 0 -56 35 -49
55 8 20 16 19 44 -7z m1475 -9 c13 -6 50 -44 83 -86 33 -41 90 -110 127 -152
41 -47 63 -80 57 -85 -12 -13 -59 33 -171 167 -52 62 -97 107 -107 107 -16 0
-19 -15 -23 -142 -5 -134 -30 -288 -47 -288 -23 0 -27 24 -14 78 8 31 18 130
22 219 8 189 16 209 73 182z m-2009 -13 c3 -8 0 -19 -6 -24 -27 -22 -213 -103
-231 -100 -45 7 -23 29 81 82 112 57 147 66 156 42z m1055 -116 c34 -21 43
-50 15 -50 -20 0 -63 38 -63 57 0 18 9 16 48 -7z m-1411 -53 c61 -62 67 -90
26 -129 -59 -54 -105 -62 -150 -24 -42 35 -67 87 -59 120 7 30 79 86 109 86
11 0 44 -24 74 -53z m2403 -23 c0 -8 -9 -14 -20 -14 -22 0 -28 26 -7 33 16 6
27 -1 27 -19z m-3155 -19 c0 -25 -4 -30 -24 -30 -32 0 -49 28 -31 50 7 9 23
15 34 13 16 -2 21 -10 21 -33z m401 -5 c167 -82 404 -269 404 -318 0 -54 -32
-91 -66 -78 -14 5 -13 9 2 35 15 26 16 32 3 47 -16 20 -336 232 -397 263 -78
40 -148 18 -178 -56 -24 -57 5 -125 64 -150 23 -9 32 -19 30 -31 -3 -9 -11
-15 -19 -13 -8 2 -34 7 -58 10 -57 8 -83 41 -89 116 -5 64 15 130 51 163 67
63 143 66 253 12z m2849 -33 c-9 -23 -35 -29 -42 -10 -4 9 1 21 12 29 22 16
39 5 30 -19z m-3343 -16 c49 -31 98 -112 98 -160 -1 -53 -58 -111 -108 -111
-59 0 -112 59 -112 124 0 29 42 66 76 66 32 0 30 -12 -6 -32 -68 -39 -8 -125
61 -88 30 16 24 61 -15 112 -54 71 -98 78 -152 24 -30 -30 -34 -40 -34 -85 0
-60 18 -107 52 -138 30 -28 169 -108 224 -129 l42 -16 53 51 c107 100 142 95
51 -8 l-61 -69 39 -6 c47 -7 54 -16 39 -50 -17 -36 -43 -34 -156 14 -257 107
-353 200 -353 341 0 150 141 237 262 160z m1455 2 c2 -6 -58 -37 -133 -69
l-137 -58 44 -39 c85 -76 77 -75 176 -22 49 26 90 51 91 56 8 22 43 4 118 -60
114 -97 126 -130 103 -270 -18 -116 -61 -161 -152 -161 -63 0 -113 24 -147 71
-27 38 -86 197 -76 207 11 10 48 -33 73 -83 53 -103 111 -155 174 -155 74 0
102 52 103 194 l1 88 -63 58 c-34 32 -75 63 -91 70 -27 11 -35 8 -100 -30 -39
-24 -73 -46 -76 -49 -2 -4 24 -22 58 -41 79 -43 187 -121 187 -135 0 -14 -21
-35 -36 -35 -6 0 -51 32 -100 72 -48 39 -141 111 -206 160 -65 49 -118 95
-118 103 0 21 37 42 168 96 117 48 133 52 139 32z m694 -39 c10 -13 13 -47 11
-140 l-3 -123 34 6 c29 4 37 1 60 -27 39 -45 37 -98 -4 -139 -21 -21 -40 -31
-62 -31 -32 0 -77 33 -77 57 0 21 -26 15 -146 -33 -107 -43 -151 -50 -142 -22
3 7 68 44 145 82 l141 69 6 51 c3 28 9 90 12 139 l7 87 -28 0 c-30 0 -75 -34
-75 -57 0 -21 28 -15 35 8 4 11 14 19 23 17 23 -5 25 -22 3 -49 -16 -20 -23
-22 -47 -14 -45 16 -43 48 4 95 43 43 80 52 103 24z m-1739 -21 c38 -34 12
-93 -41 -93 -34 0 -51 17 -51 49 0 52 54 78 92 44z m-1597 -28 c0 -28 -29 -25
-33 3 -3 19 0 23 15 20 10 -2 18 -12 18 -23z m2246 -34 c22 -22 29 -39 29 -68
0 -46 -18 -76 -104 -173 -127 -143 -182 -243 -162 -296 5 -13 9 -14 21 -4 8 6
19 9 25 5 28 -17 -6 -75 -45 -75 -56 0 -82 94 -48 171 20 45 145 219 215 298
42 48 51 97 22 125 -18 19 -16 19 -48 6 -20 -7 -26 -17 -26 -39 0 -37 -16 -48
-30 -21 -14 27 -5 55 27 80 38 30 88 26 124 -9z m2278 3 c26 -33 26 -46 1 -69
-28 -26 -121 -33 -139 -11 -12 14 -10 16 15 16 16 0 46 3 67 7 31 5 38 9 35
27 -2 15 -9 20 -25 18 -23 -3 -38 12 -28 28 12 19 53 10 74 -16z m-2745 -7 c7
-11 7 -20 0 -27 -15 -15 -44 -2 -44 19 0 35 25 39 44 8z m-1069 -72 c0 -25 -4
-31 -27 -33 -21 -3 -28 1 -28 13 0 11 5 15 15 11 8 -3 15 -1 15 3 0 5 -5 11
-12 13 -17 6 1 30 20 26 11 -2 17 -13 17 -33z m2411 16 c39 -18 114 -83 114
-99 -1 -21 -25 -34 -126 -66 -61 -20 -114 -36 -117 -36 -4 0 -7 8 -7 18 0 22
49 46 133 65 32 7 59 17 59 22 2 15 -81 75 -103 75 -15 0 -19 -7 -19 -34 0
-40 -8 -66 -21 -66 -14 0 -11 128 4 133 22 10 42 7 83 -12z m-1277 -51 c67
-39 101 -81 101 -125 0 -48 -59 -105 -110 -105 -56 0 -105 55 -73 81 12 10 21
9 49 -6 28 -15 36 -16 49 -5 28 23 14 62 -30 87 -66 35 -76 34 -90 -14 -24
-81 -103 -166 -189 -204 l-28 -13 7 -101 c6 -88 4 -109 -15 -164 -11 -35 -20
-64 -18 -65 2 -2 24 -10 49 -19 51 -19 89 -50 89 -73 0 -27 -30 -28 -58 -1
-15 13 -37 28 -50 32 -50 15 -128 -35 -152 -99 -14 -39 5 -67 82 -117 101 -65
157 -50 179 46 16 71 35 67 30 -5 -3 -48 -1 -52 15 -45 11 4 60 9 109 12 81 4
94 2 129 -19 79 -47 105 -122 68 -195 -28 -54 -178 -193 -249 -230 -83 -44
-379 -123 -403 -108 -5 3 -10 17 -10 30 0 26 1 27 155 65 149 36 260 83 294
124 19 23 -11 105 -54 146 -41 40 -43 50 -12 50 32 0 86 -36 105 -71 36 -65
38 -66 62 -44 58 52 66 120 19 159 -40 34 -107 34 -245 2 -56 -13 -113 -22
-126 -19 -19 4 -43 -10 -107 -65 -46 -39 -92 -72 -102 -75 -13 -3 -37 9 -69
34 -85 67 -91 106 -22 146 36 21 42 23 42 9 0 -10 -13 -25 -30 -34 -16 -9 -30
-22 -30 -29 0 -17 71 -73 93 -73 10 0 43 25 74 56 l56 56 -59 53 c-32 30 -62
54 -67 55 -4 0 -36 -18 -71 -40 -68 -43 -103 -93 -91 -131 4 -12 33 -47 65
-78 78 -77 81 -96 36 -259 -19 -70 -40 -156 -45 -190 -6 -35 -15 -70 -22 -78
-18 -22 -45 -16 -57 12 -10 21 -6 48 29 172 22 81 43 170 46 198 l5 51 -55 48
c-64 55 -82 89 -74 145 8 63 42 105 133 166 46 31 94 70 106 87 12 18 40 55
63 82 23 28 52 75 64 105 22 50 23 63 17 170 -8 128 5 203 51 295 40 79 68
111 125 139 78 39 133 36 217 -14z m913 -14 c63 -52 119 -112 111 -120 -5 -5
-176 135 -188 154 -16 25 29 6 77 -34z m1938 21 c0 -7 -75 -50 -167 -96 -93
-46 -192 -99 -221 -118 -29 -20 -55 -33 -58 -30 -17 17 77 85 231 166 164 86
215 105 215 78z m-4460 -75 c11 -13 20 -36 20 -49 0 -30 -51 -83 -80 -83 -28
0 -80 52 -80 80 0 34 19 60 52 75 39 16 63 10 88 -23z m2244 -15 c22 -22 43
-93 32 -105 -4 -3 -18 5 -32 19 -21 19 -36 24 -79 23 -44 0 -63 -6 -110 -37
-74 -50 -94 -98 -55 -137 24 -24 34 -25 54 -5 17 18 12 40 -17 73 l-20 22 26
0 c57 0 79 -92 31 -129 -32 -25 -55 -26 -94 -6 -43 22 -64 69 -61 133 2 34 67
97 141 137 81 43 148 48 184 12z m-1599 -56 c-7 -33 24 -101 106 -233 31 -50
44 -80 37 -84 -15 -10 -36 18 -112 150 -72 126 -84 159 -66 181 22 27 42 19
35 -14z m1577 -96 c26 -39 48 -75 48 -81 0 -14 -28 -27 -40 -19 -14 8 -90 146
-90 162 0 32 37 4 82 -62z m-2108 46 c10 -16 -6 -42 -23 -39 -9 2 -17 13 -19
26 -3 16 2 22 17 22 11 0 22 -4 25 -9z m106 -15 c0 -28 -12 -46 -31 -46 -21 0
-22 4 -13 38 7 24 44 31 44 8z m613 -55 c62 -64 73 -91 63 -154 -12 -74 -106
-390 -126 -423 -25 -39 -92 -87 -117 -82 -28 5 -21 31 11 39 44 12 75 48 91
104 7 27 34 126 60 219 29 107 44 178 41 195 -4 14 -32 49 -63 77 -40 36 -54
56 -50 68 11 28 32 18 90 -43z m2227 -31 c107 -46 116 -52 97 -69 -12 -9 -36
-2 -121 35 -60 26 -106 53 -106 60 0 23 31 16 130 -26z m262 -104 c12 -83 11
-86 -11 -109 -13 -15 -52 -33 -97 -47 -67 -20 -91 -39 -66 -54 10 -6 262 70
276 84 12 12 -1 38 -45 97 -40 53 -31 68 12 22 68 -72 85 -122 52 -152 -20
-17 -235 -85 -300 -94 -42 -6 -54 2 -32 24 7 7 5 23 -7 52 -13 34 -14 46 -4
70 13 33 141 161 160 161 9 0 11 12 7 40 -6 47 12 60 30 20 7 -15 18 -66 25
-114z m-3384 108 c26 -18 28 -41 6 -72 -17 -24 -65 -30 -81 -9 -23 29 -23 48
2 73 28 28 42 30 73 8z m1670 -53 c47 -24 71 -50 87 -97 34 -100 -82 -178
-156 -105 -31 31 -35 53 -19 96 6 17 20 27 41 32 22 4 27 8 17 14 -19 13 -91
10 -109 -4 -37 -28 -50 -92 -28 -139 22 -48 57 -62 165 -68 90 -5 106 -9 143
-34 22 -16 45 -34 51 -41 9 -10 21 -2 57 36 51 55 123 94 200 109 37 7 61 18
80 39 36 37 224 164 232 156 6 -6 -24 -36 -137 -135 -29 -25 -52 -50 -51 -55
0 -6 19 -24 42 -40 29 -21 53 -51 77 -98 29 -56 48 -78 107 -122 113 -86 206
-183 239 -250 40 -82 42 -187 4 -255 -41 -73 -138 -109 -216 -80 -31 12 -360
251 -449 326 l-62 52 -11 -60 c-11 -60 -78 -192 -112 -223 -21 -19 -50 -9 -50
17 0 10 18 49 40 85 55 91 65 149 45 248 -27 130 -44 164 -100 204 -47 34 -54
36 -136 38 -134 3 -202 48 -230 155 -38 142 110 265 239 199z m1360 -4 c2 -11
-3 -17 -17 -17 -23 0 -35 15 -26 31 10 15 39 6 43 -14z m-1900 -5 c2 -6 -8
-22 -21 -36 -13 -13 -27 -37 -31 -52 -12 -46 -64 -154 -75 -154 -22 0 -19 22
14 99 19 45 30 81 25 81 -20 0 -9 31 13 39 13 5 29 16 36 25 15 18 32 17 39
-2z m-626 -86 c68 -87 76 -104 54 -112 -22 -8 -48 16 -107 100 -37 52 -46 72
-38 82 16 19 29 9 91 -70z m693 55 c3 -5 -2 -35 -12 -65 -12 -39 -22 -56 -34
-56 -15 0 -16 4 -2 53 8 28 16 58 18 65 5 14 21 16 30 3z m1688 -36 c162 -42
217 -69 217 -107 0 -30 -30 -33 -94 -9 -34 13 -97 34 -141 48 -72 22 -86 23
-140 13 -74 -14 -180 -59 -241 -100 -36 -26 -48 -29 -59 -20 -49 40 46 114
215 168 120 38 123 38 243 7z m1526 5 c23 -12 51 -80 51 -124 0 -38 -21 -66
-51 -66 -23 0 -25 17 -3 42 15 16 15 22 3 55 -10 25 -22 39 -36 41 -11 2 -87
-29 -167 -68 -143 -69 -146 -71 -140 -98 13 -53 24 -74 37 -69 90 40 142 57
155 52 12 -5 -13 -22 -85 -58 -83 -41 -105 -49 -115 -39 -10 10 -10 14 1 21
11 7 9 14 -7 37 -28 39 -36 75 -20 96 13 17 215 134 293 169 46 21 59 23 84 9z
m-3988 -101 c53 -69 63 -99 35 -99 -18 0 -49 36 -90 104 -33 57 -38 81 -13 73
7 -2 37 -37 68 -78z m2404 -9 c7 0 26 -11 42 -24 15 -13 45 -26 65 -30 45 -8
89 -56 113 -122 9 -27 23 -67 31 -89 21 -60 25 -64 85 -71 l56 -6 6 67 c10
107 34 129 164 159 91 20 128 20 163 0 40 -24 56 -59 76 -159 13 -72 15 -122
10 -249 -4 -112 -9 -162 -18 -168 -7 -5 -53 -7 -101 -4 l-89 5 -36 -39 c-53
-54 -126 -75 -268 -75 -90 0 -115 4 -138 18 -15 10 -25 21 -22 24 3 4 59 5
124 4 175 -3 235 24 267 120 26 76 94 113 81 44 l-7 -35 70 0 69 0 7 125 c4
68 5 131 2 139 -5 12 -12 12 -54 -1 -36 -13 -93 -17 -236 -17 -216 -1 -207 -5
-226 93 -15 75 -54 156 -86 177 -30 20 -84 14 -150 -17 -81 -38 -110 -80 -85
-119 8 -12 14 -9 36 18 35 44 73 62 132 62 94 0 137 -52 149 -182 5 -54 4 -59
-25 -86 -18 -17 -56 -36 -92 -46 -71 -20 -79 -32 -100 -151 -13 -75 -21 -97
-36 -102 -10 -3 9 214 20 224 3 3 -8 23 -24 45 -34 46 -65 124 -86 214 -21 94
-3 127 99 175 47 22 47 23 25 36 -13 7 -34 12 -48 13 -34 0 -159 -35 -231 -65
-63 -27 -93 -32 -87 -14 9 28 289 125 326 113 8 -2 20 -4 27 -4z m-1696 -19
c11 -7 9 -22 -14 -82 -33 -87 -41 -99 -66 -99 -18 0 -18 2 -6 28 8 15 24 57
36 95 23 69 26 73 50 58z m-1163 -121 c43 -30 58 -60 30 -60 -10 0 -76 38 -95
56 -5 5 7 34 14 34 4 0 26 -14 51 -30z m3892 -37 c3 -57 1 -63 -22 -78 -28
-18 -67 -17 -74 3 -2 8 7 12 26 12 37 0 46 21 36 86 -6 41 -5 46 12 42 16 -3
20 -14 22 -65z m596 33 c37 -16 63 -61 72 -129 5 -38 2 -54 -26 -105 -38 -71
-68 -95 -122 -95 -62 0 -149 70 -134 109 8 22 32 17 78 -16 22 -16 49 -30 58
-30 36 0 80 72 80 130 0 36 -19 80 -35 80 -7 0 -71 -28 -143 -62 l-130 -63 43
-75 c60 -106 109 -158 173 -187 39 -17 53 -28 50 -41 -5 -29 -71 -28 -123 2
-51 30 -136 122 -172 186 -14 25 -44 62 -66 82 -35 31 -39 39 -28 52 7 9 31
21 53 26 22 6 103 42 180 81 77 38 144 69 150 69 5 0 23 -6 42 -14z m-1938
-37 c36 -22 44 -39 19 -39 -13 0 -39 13 -74 36 -4 4 9 24 16 24 3 0 21 -9 39
-21z m-2430 -48 c-9 -14 -33 -14 -41 -1 -4 6 -1 18 6 26 11 13 14 13 27 0 8
-8 11 -19 8 -25z m1574 -16 c20 -25 8 -50 -25 -50 -31 0 -43 20 -31 51 7 18
40 18 56 -1z m-1812 -12 c5 -17 -26 -29 -40 -15 -6 6 -7 15 -3 22 9 14 37 9
43 -7z m1506 8 c3 -5 -7 -14 -23 -19 -16 -6 -37 -24 -47 -41 -21 -35 -34 -40
-34 -12 0 29 48 81 75 81 13 0 26 -4 29 -9z m-1419 -35 c16 -12 18 -19 10 -43
-8 -22 -18 -29 -42 -31 -43 -4 -62 28 -38 64 17 27 42 31 70 10z m470 -17
c-11 -16 -115 -70 -125 -64 -18 11 -7 24 50 59 38 23 59 30 67 23 7 -5 10 -13
8 -18z m3965 6 c17 -18 21 -28 13 -36 -7 -7 -17 -2 -32 17 -37 47 -22 62 19
19z m-3015 -51 c0 -21 -5 -30 -20 -32 -16 -3 -18 -1 -7 9 16 17 15 29 -3 29
-18 0 -20 16 -2 23 22 9 32 1 32 -29z m2556 13 c74 -50 104 -139 97 -287 -5
-108 -26 -147 -141 -264 -98 -99 -149 -126 -239 -126 -125 1 -218 75 -218 174
0 40 30 81 65 90 25 6 211 -37 228 -53 4 -4 5 -15 1 -24 -8 -22 -41 -22 -125
0 -71 18 -99 14 -99 -14 0 -83 152 -126 250 -72 61 33 174 166 190 222 7 27
11 84 9 140 -3 78 -8 101 -25 124 -31 41 -66 51 -109 30 -43 -20 -47 -47 -7
-47 59 0 67 -17 67 -138 0 -102 -2 -112 -24 -136 -49 -52 -126 -40 -148 24
-18 50 -7 242 17 297 35 80 138 109 211 60z m-3001 -46 c0 -30 -138 -124 -182
-124 -37 0 -99 56 -81 74 18 18 47 6 64 -28 l16 -32 69 45 c38 25 76 52 84 60
16 16 30 18 30 5z m2344 -86 c63 -30 86 -118 46 -182 -37 -62 -114 -89 -150
-53 -27 27 -18 40 28 40 60 0 82 22 82 81 0 60 -27 94 -66 85 -29 -8 -34 17
-6 33 23 14 29 13 66 -4z m-2130 -34 c11 -12 14 -21 7 -26 -14 -8 -28 1 -41
26 -14 26 10 26 34 0z m-496 -47 c74 -85 -53 -209 -133 -129 -44 43 -28 132
29 155 32 14 79 3 104 -26z m868 -70 c26 -87 26 -101 0 -91 -18 7 -61 140 -52
162 12 32 26 12 52 -71z m1508 64 c40 -35 43 -78 11 -116 -50 -60 -135 -34
-151 46 -5 26 -1 36 24 62 37 37 80 40 116 8z m90 -27 c-3 -16 -1 -39 6 -51
10 -18 9 -21 -1 -18 -21 7 -34 65 -19 83 18 21 20 19 14 -14z m-1723 -53 c12
-24 30 -53 41 -65 11 -12 17 -26 13 -32 -13 -22 -43 -10 -64 24 -35 60 -73 43
-69 -31 3 -47 2 -49 -26 -52 -31 -4 -77 32 -102 81 -20 38 1 36 43 -5 l33 -32
0 52 c0 64 30 102 79 102 26 0 34 -7 52 -42z m-498 -30 c24 -25 28 -36 23 -62
-9 -45 -39 -70 -82 -70 -72 0 -113 94 -61 141 44 41 76 38 120 -9z m1378 -110
c171 -103 195 -129 167 -178 -35 -62 -192 -261 -221 -282 -24 -17 -46 -23 -89
-23 -39 0 -62 -6 -75 -18 -17 -15 -63 -24 -63 -13 0 2 -3 11 -6 20 -4 10 7 21
35 36 23 11 41 22 41 24 0 2 -7 20 -15 39 -31 75 -16 182 50 344 36 88 36 88
15 105 -23 18 -26 38 -7 38 7 0 83 -42 168 -92z m-271 14 c-1 -18 -19 -34 -36
-30 -22 4 -31 37 -13 49 13 8 49 -6 49 -19z m2648 -5 c2 -10 -3 -17 -12 -17
-18 0 -29 16 -21 31 9 14 29 6 33 -14z m-1698 -2 c0 -11 -11 -15 -40 -15 -22
0 -58 -7 -80 -16 -44 -18 -54 -16 -44 9 8 22 49 35 112 36 40 1 52 -2 52 -14z
m-1963 -71 c3 -8 -2 -23 -11 -32 -14 -15 -18 -15 -31 -1 -9 9 -13 23 -9 32 8
21 43 22 51 1z m2142 -20 c159 -29 233 -59 255 -103 33 -64 8 -144 -64 -202
-49 -39 -47 -44 56 -134 92 -80 110 -81 106 -8 -8 116 102 219 213 199 84 -16
159 -134 136 -214 -15 -50 -47 -88 -94 -111 -59 -29 -105 -26 -169 8 -49 25
-58 27 -79 15 -13 -7 -32 -13 -41 -14 -23 0 -153 112 -187 161 -16 25 -31 36
-41 33 -103 -37 -362 -81 -400 -69 -27 9 -39 54 -46 174 l-7 107 27 22 c31 23
91 36 181 37 57 0 60 -1 60 -25 0 -17 -6 -26 -20 -28 -63 -9 -65 -11 -58 -45
8 -44 16 -50 52 -42 27 6 31 11 31 41 0 27 4 34 20 34 22 0 33 -31 28 -76 -3
-28 -6 -29 -70 -38 -82 -11 -94 -4 -103 66 -7 50 -7 50 -38 44 -52 -11 -56
-21 -43 -116 l11 -85 49 3 c83 4 248 42 311 71 81 37 127 84 123 124 -2 18
-13 37 -28 49 -35 25 -227 68 -341 75 -109 7 -155 -7 -233 -72 -46 -38 -67
-43 -85 -21 -19 22 -3 42 76 97 130 90 149 92 412 43z m-1365 9 c-37 -87 -54
-154 -54 -229 l0 -81 38 -11 c104 -31 185 -146 167 -239 -3 -19 -22 -52 -42
-74 l-36 -39 34 -67 c46 -90 65 -103 175 -111 l89 -7 0 -30 0 -30 -75 -3 c-41
-2 -92 2 -112 8 -43 12 -120 93 -152 158 -19 40 -23 43 -51 38 -16 -4 -76 -9
-132 -13 -118 -7 -147 2 -193 53 -79 91 -58 286 40 352 28 19 46 22 121 22
l89 0 0 38 c0 97 57 282 87 282 11 0 13 -5 7 -17z m160 -24 c29 -14 32 -21 52
-113 9 -42 11 -73 5 -79 -5 -5 -39 -9 -76 -10 -62 -2 -69 0 -88 25 -25 34 -35
121 -16 144 14 18 65 43 86 44 7 0 23 -5 37 -11z m2894 -1 c-5 -15 -119 -37
-144 -27 -15 5 -7 10 31 22 62 19 118 22 113 5z m-3223 -57 c3 -6 -2 -14 -12
-19 -33 -17 -423 -113 -433 -107 -18 11 -11 34 13 40 115 29 396 93 409 94 9
0 19 -3 23 -8z m2985 -34 c0 -7 -29 -42 -65 -77 -51 -51 -67 -62 -77 -52 -10
10 2 26 56 77 69 66 86 76 86 52z m-468 -52 c11 -84 9 -146 -6 -173 -8 -15
-22 -48 -31 -74 -24 -69 -96 -108 -135 -73 -27 25 -25 37 5 29 20 -5 31 0 54
25 37 39 54 105 55 211 1 91 8 113 34 108 12 -2 19 -18 24 -53z m-1467 -39
c43 -33 85 -115 85 -166 -1 -85 -65 -160 -155 -180 -77 -17 -181 3 -169 34 4
9 28 13 89 12 82 -1 84 0 119 33 60 58 58 137 -5 197 -24 23 -40 29 -73 29
-57 0 -94 -26 -118 -86 -19 -44 -23 -48 -36 -35 -12 12 -13 22 -3 61 6 26 19
58 28 71 45 69 167 84 238 30z m583 25 c10 -6 3 -15 -23 -36 -28 -21 -39 -25
-48 -15 -9 9 -5 17 16 36 31 26 36 28 55 15z m252 -56 c15 -18 6 -45 -15 -45
-18 0 -30 24 -21 45 7 19 20 19 36 0z m1113 1 c9 -22 -84 -96 -120 -96 -12 0
0 17 42 55 66 59 70 62 78 41z m-373 -42 c0 -19 -28 -30 -42 -16 -8 8 -8 15 1
26 14 17 41 10 41 -10z m-3280 -15 c0 -75 -112 -118 -165 -65 -27 27 -25 52 6
61 10 3 27 1 38 -4 31 -17 56 -13 81 14 25 27 40 25 40 -6z m362 14 c24 -21
23 -54 -2 -81 -28 -30 -64 -28 -89 4 -25 32 -26 43 -5 72 18 27 69 30 96 5z
m658 -43 c0 -13 -7 -20 -20 -20 -19 0 -27 20 -13 33 13 14 33 6 33 -13z m605
-15 c14 -13 25 -36 25 -50 0 -52 -69 -85 -104 -49 -37 36 -27 96 17 114 32 13
36 12 62 -15z m803 -29 c3 -13 -1 -17 -14 -14 -11 2 -20 11 -22 22 -3 13 1 17
14 14 11 -2 20 -11 22 -22z m813 -10 c30 -64 -32 -171 -128 -224 -66 -36 -74
-49 -45 -75 16 -15 22 -13 77 22 57 36 110 87 147 141 14 21 17 22 17 7 1 -10
-5 -31 -13 -46 -17 -32 -129 -138 -162 -153 -21 -10 -23 -16 -17 -54 5 -37 1
-51 -21 -84 -14 -22 -33 -40 -41 -40 -20 0 -19 13 5 57 11 21 20 44 20 51 0 7
-21 35 -47 63 -38 40 -47 57 -47 86 0 41 18 58 78 74 76 20 145 116 117 160
-18 30 -13 39 19 39 22 0 33 -6 41 -24z m-3117 -4 c12 -10 64 -38 116 -62 111
-51 132 -67 128 -94 -5 -37 -47 -30 -171 29 -90 43 -120 62 -127 81 -13 32
-13 30 6 48 20 20 23 20 48 -2z m3376 -47 c0 -15 -53 -27 -86 -19 -46 12 -27
31 31 31 37 0 55 -4 55 -12z m-1290 -167 c0 -100 2 -119 14 -115 8 3 31 9 50
13 40 7 43 12 21 40 -19 25 -19 78 1 95 21 17 60 -4 132 -70 37 -34 52 -55 52
-74 0 -46 -66 -62 -121 -30 -25 15 -36 16 -86 5 -31 -6 -60 -17 -64 -23 -4 -6
-12 -8 -18 -5 -12 8 -16 251 -5 280 15 39 24 -5 24 -116z m-3270 102 c40 -40
21 -99 -46 -140 -40 -25 -63 -17 -24 9 42 28 60 50 60 76 0 32 -34 51 -66 36
-28 -12 -42 2 -24 24 18 22 76 19 100 -5z m2330 -8 c39 -29 62 -80 57 -129 -6
-58 -30 -91 -84 -115 -79 -35 -150 -9 -179 67 -20 55 -13 103 23 146 51 60
126 73 183 31z m-1710 -22 c0 -13 -7 -20 -20 -20 -13 0 -20 7 -20 20 0 13 7
20 20 20 13 0 20 -7 20 -20z m1845 -65 c0 -11 -7 -21 -16 -23 -18 -3 -33 23
-23 39 10 17 39 5 39 -16z m-1685 -40 c-7 -8 -16 -15 -21 -15 -14 0 -11 38 4
43 20 7 31 -11 17 -28z m3774 -2 c-4 -10 -9 -35 -12 -55 -4 -33 -1 -38 28 -53
35 -18 35 -41 -1 -37 -52 6 -77 57 -59 122 8 30 16 40 31 40 16 0 19 -4 13
-17z m-1456 -25 c2 -20 -2 -28 -19 -33 -13 -4 -120 -8 -239 -9 -188 -1 -220
-4 -243 -19 -48 -31 -49 -121 -2 -182 14 -20 23 -40 20 -45 -14 -22 -36 -7
-62 43 -48 93 -31 201 39 247 24 15 217 28 413 26 90 -1 90 -1 93 -28z m534
-23 c50 -277 55 -333 34 -341 -24 -9 -45 14 -52 58 -4 21 -11 41 -15 44 -13 8
-10 -53 5 -118 21 -88 27 -92 77 -56 30 23 31 23 46 3 8 -11 32 -56 53 -100
70 -147 133 -207 198 -190 44 11 82 59 82 104 0 34 -8 50 -53 103 -29 35 -76
93 -106 131 -29 37 -57 67 -61 67 -24 0 -17 -29 29 -112 54 -97 61 -122 34
-132 -25 -10 -58 28 -91 107 -43 105 -48 133 -23 149 20 12 20 13 -5 45 -63
83 -81 180 -45 239 24 39 60 49 105 30 48 -20 72 -59 58 -91 -13 -29 -52 -34
-72 -10 -7 9 -15 13 -18 10 -6 -6 71 -119 112 -163 47 -52 109 -90 161 -102
63 -14 85 -27 85 -49 0 -32 -26 -45 -61 -31 -35 15 -62 0 -44 -24 55 -74 68
-101 73 -145 9 -93 -51 -175 -145 -200 -95 -26 -176 31 -244 172 -21 44 -39
86 -39 93 0 6 -6 17 -14 23 -20 17 -56 -3 -56 -30 0 -18 38 -98 78 -161 16
-25 16 -29 1 -44 -27 -27 -53 -8 -97 69 -47 83 -63 136 -92 296 -31 179 -26
221 27 221 22 0 23 2 16 74 -7 88 -1 109 29 104 18 -2 25 -12 30 -43z m741 23
c17 -26 1 -50 -30 -46 -34 4 -43 36 -17 55 21 15 34 13 47 -9z m-1173 -41 c0
-8 -3 -17 -7 -20 -9 -9 -34 13 -27 24 8 14 34 11 34 -4z m-2548 -54 c27 -26
28 -30 28 -129 0 -116 -11 -154 -46 -154 -24 0 -33 8 -39 37 -2 10 -15 45 -29
78 -35 84 -42 139 -22 170 23 35 71 34 108 -2z m2116 18 c24 -5 49 -14 55 -21
10 -10 -2 -11 -55 -6 -57 6 -74 3 -108 -14 -22 -11 -45 -18 -50 -15 -16 10
-11 43 8 54 21 12 91 13 150 2z m-2475 -18 c4 -3 0 -14 -8 -23 -25 -28 -28
-72 -6 -107 22 -36 78 -76 206 -148 65 -37 90 -57 90 -70 0 -11 -7 -21 -15
-23 -8 -1 -80 35 -159 81 -157 90 -199 129 -208 194 -4 32 0 45 22 71 25 30
62 42 78 25z m3119 -29 c23 -7 31 -35 14 -52 -28 -28 -126 17 -113 52 7 16 38
16 99 0z m657 2 c9 -10 8 -16 -4 -26 -19 -16 -41 1 -32 24 8 20 21 20 36 2z
m-1305 -28 c26 -37 20 -73 -16 -103 -18 -15 -35 -39 -38 -54 -7 -33 -43 -51
-105 -51 -68 0 -95 16 -132 80 -51 88 -59 97 -74 83 -10 -11 -9 -26 5 -82 15
-57 17 -89 11 -170 l-7 -100 66 -143 c36 -79 74 -161 86 -183 24 -47 25 -59 4
-79 -28 -29 -51 -20 -57 22 -2 22 -28 91 -56 155 -80 180 -82 190 -82 310 1
77 -5 131 -19 187 -23 90 -17 125 25 136 37 9 70 -18 104 -84 35 -69 58 -91
102 -98 25 -4 41 -1 58 13 22 18 23 20 7 57 -25 59 -21 83 17 106 43 27 82 26
101 -2z m-1147 -28 c7 -25 3 -25 148 1 69 13 132 19 148 15 38 -9 65 -65 49
-101 -14 -30 -38 -41 -129 -55 -108 -17 -113 -19 -125 -45 -7 -16 -19 -25 -34
-25 -26 0 -37 22 -25 53 15 40 46 58 117 68 147 22 138 19 123 34 -12 11 -28
11 -100 1 -127 -19 -156 -32 -185 -77 -43 -68 -69 -47 -73 60 -2 72 9 91 51
91 21 0 31 -6 35 -20z m3171 -26 c44 -31 21 -64 -28 -39 -33 17 -36 25 -18 43
15 15 19 15 46 -4z m-745 -46 c-7 -53 -9 -55 -23 -28 -14 26 -5 70 14 70 11 0
13 -10 9 -42z m-3558 2 c0 -34 -50 -42 -60 -11 -9 29 3 43 33 39 21 -2 27 -8
27 -28z m4475 -12 c0 -16 -31 -48 -47 -48 -20 0 -16 20 9 41 24 22 38 24 38 7z
m-4190 -32 c0 -26 -67 -166 -79 -166 -20 0 -16 16 20 86 22 41 39 82 39 90 0
7 5 14 10 14 6 0 10 -11 10 -24z m-602 -20 c5 -25 -12 -39 -37 -31 -20 6 -28
34 -14 49 13 13 48 1 51 -18z m2012 -28 c0 -7 -32 -45 -72 -85 l-72 -72 13
-67 c29 -143 9 -233 -52 -234 -29 0 -30 26 -3 53 31 31 31 40 10 164 l-16 95
78 79 c72 73 114 97 114 67z m-1791 -113 c180 -80 243 -132 225 -187 -3 -11
-37 -39 -75 -64 -38 -24 -69 -48 -69 -53 0 -5 33 -27 74 -50 92 -50 116 -79
116 -138 0 -38 -5 -50 -34 -79 -29 -29 -41 -34 -83 -34 -53 0 -63 5 -165 87
l-67 54 -58 -39 c-32 -22 -80 -52 -107 -66 -94 -50 -186 -27 -229 57 -50 96 3
202 125 252 l45 19 7 79 c7 78 28 160 50 186 20 26 66 39 105 30 20 -4 83 -29
140 -54z m2318 -1 c15 -12 29 -30 31 -40 4 -28 -55 -112 -99 -141 -89 -59
-189 -4 -189 104 0 46 5 54 50 82 47 30 164 27 207 -5z m-785 -21 c22 -25 33
-183 13 -183 -20 0 -27 33 -23 103 l3 62 -34 3 c-28 3 -39 -3 -76 -41 -23 -24
-45 -57 -49 -73 -8 -31 0 -40 74 -87 33 -22 35 -26 41 -93 14 -148 78 -197
152 -115 49 55 78 138 84 248 5 75 3 97 -11 117 -9 14 -16 28 -16 31 0 12 21
4 40 -15 16 -16 20 -33 20 -87 -1 -150 -34 -263 -99 -332 -84 -90 -181 -22
-199 142 -7 58 -9 63 -50 90 -52 35 -67 63 -58 110 7 37 67 114 100 127 35 14
72 11 88 -7z m342 -2 c22 -24 165 -334 169 -363 3 -37 -39 -37 -55 -1 -65 153
-125 273 -154 309 -30 36 -34 47 -24 59 17 20 43 19 64 -4z m1729 -107 c9 -10
-4 -34 -19 -34 -8 0 -14 9 -14 20 0 19 19 27 33 14z m-2987 -26 c4 -6 -1 -17
-11 -25 -24 -17 -34 -17 -42 3 -10 26 38 47 53 22z m3308 -23 c36 -24 70 -98
62 -137 -8 -39 -23 -58 -47 -58 -21 0 -23 6 -20 66 3 46 -19 98 -44 108 -9 3
-30 6 -46 6 -33 0 -38 14 -11 30 22 13 73 6 106 -15z m-1395 -8 c14 -17 16
-15 -161 -141 -132 -94 -173 -112 -173 -74 0 25 271 228 306 228 9 0 22 -6 28
-13z m-2020 -31 c9 -10 9 -16 1 -21 -13 -8 -42 14 -34 26 8 13 20 11 33 -5z
m2644 -72 c46 -45 38 -66 -10 -24 -25 23 -39 28 -46 21 -15 -15 -37 -14 -37 2
0 18 21 37 40 37 8 0 32 -16 53 -36z m-599 -36 c5 -24 3 -28 -14 -28 -15 0
-20 7 -20 28 0 52 22 52 34 0z m-1767 -53 c13 -28 14 -38 5 -47 -10 -10 -18
-6 -37 17 -30 37 -32 65 -5 65 13 0 26 -12 37 -35z m2553 -25 c0 -13 -7 -20
-20 -20 -24 0 -44 32 -28 48 16 16 48 -4 48 -28z m-850 10 c26 -26 26 -81 0
-105 -14 -13 -28 -16 -57 -11 -21 4 -51 7 -67 9 -35 2 -47 26 -17 34 14 4 21
13 21 31 0 57 77 85 120 42z m623 4 c11 -11 -5 -34 -24 -34 -12 0 -19 7 -19
20 0 19 28 28 43 14z m-2524 -40 c60 -51 48 -129 -25 -160 -66 -28 -129 15
-129 88 0 33 6 45 33 69 41 36 80 38 121 3z m479 -114 c-2 -33 -7 -46 -20 -48
-16 -3 -18 5 -18 55 0 65 18 100 33 61 4 -12 7 -43 5 -68z m3042 33 c0 -9 -21
-50 -46 -90 -29 -47 -44 -81 -41 -94 3 -10 1 -19 -4 -19 -17 0 -49 40 -49 62
0 22 36 90 77 146 20 27 27 30 44 22 10 -6 19 -18 19 -27z m-3135 -88 c0 -13
-8 -21 -22 -23 -17 -3 -23 2 -23 16 0 10 3 22 7 26 13 13 38 1 38 -19z m-1016
-14 c16 -10 6 -31 -14 -31 -17 0 -28 17 -20 30 8 12 16 12 34 1z"/>
<path d="M2625 4842 c-75 -22 -85 -28 -85 -52 0 -22 61 -77 106 -96 69 -29
141 -9 163 45 15 35 9 60 -23 90 -32 30 -88 34 -161 13z m89 -58 c42 -41 -8
-83 -59 -50 -14 9 -25 21 -25 27 0 7 46 34 67 39 1 0 9 -7 17 -16z"/>
<path d="M2343 4549 c-19 -19 -16 -26 14 -33 36 -10 108 -60 131 -94 35 -49
35 -66 1 -120 -17 -28 -29 -57 -27 -64 6 -16 123 95 165 154 l28 41 -23 15
c-40 27 -216 105 -247 109 -17 2 -36 -1 -42 -8z"/>
<path d="M212 4228 c-7 -7 -12 -21 -12 -32 0 -22 55 -146 65 -146 3 0 28 11
56 25 l50 26 -58 69 c-56 69 -78 81 -101 58z"/>
<path d="M1794 3716 c-9 -23 -1 -48 19 -60 26 -16 62 27 47 55 -13 22 -58 26
-66 5z"/>
<path d="M3488 3840 c-25 -26 -29 -36 -24 -63 9 -49 40 -69 95 -61 25 3 56 13
69 20 55 35 1 134 -73 134 -27 0 -44 -8 -67 -30z"/>
<path d="M2020 3510 c-26 -26 -25 -42 5 -79 38 -44 61 -48 96 -15 l29 28 -42
43 c-47 48 -59 52 -88 23z"/>
<path d="M3470 3081 c-14 -28 -13 -46 8 -70 16 -20 18 -21 40 -6 27 20 28 49
2 75 -25 25 -37 25 -50 1z"/>
<path d="M1721 3102 c-49 -51 -96 -151 -63 -133 46 25 112 95 122 129 5 20 10
40 10 45 0 19 -28 3 -69 -41z"/>
<path d="M250 3111 c-16 -31 -12 -49 15 -67 30 -19 58 -12 75 21 12 22 11 27
-5 45 -23 26 -71 26 -85 1z"/>
<path d="M3554 2781 c-55 -45 -95 -103 -81 -117 8 -9 135 35 152 53 21 21 18
113 -4 113 -3 0 -34 -22 -67 -49z"/>
<path d="M224 2879 c-9 -16 21 -43 40 -36 9 4 16 16 16 27 0 15 -7 20 -24 20
-14 0 -28 -5 -32 -11z"/>
<path d="M1922 2748 c-6 -6 -12 -25 -12 -40 0 -40 45 -58 73 -29 16 15 18 24
10 47 -11 32 -49 44 -71 22z"/>
<path d="M2389 2585 c-59 -19 -122 -62 -154 -105 -30 -41 -31 -55 -5 -97 15
-25 27 -33 47 -33 27 0 43 11 173 118 59 48 70 50 125 22 21 -11 40 -18 42
-16 2 1 -10 21 -27 44 -49 69 -120 92 -201 67z m59 -87 c-2 -15 -10 -23 -23
-23 -13 0 -21 8 -23 23 -3 18 1 22 23 22 22 0 26 -4 23 -22z"/>
<path d="M2448 2389 c-95 -80 -112 -91 -156 -99 l-37 -7 75 -74 c63 -62 305
-255 425 -337 69 -48 165 -35 204 29 19 31 38 125 28 136 -3 2 -23 -7 -44 -21
-54 -37 -103 -35 -137 5 -36 42 -43 75 -21 99 23 25 41 25 55 0 9 -16 8 -20
-5 -20 -18 0 -20 -31 -3 -48 17 -17 74 -15 92 4 22 22 20 66 -6 100 -87 116
-313 294 -374 294 -13 0 -54 -27 -96 -61z m112 -17 c0 -4 -30 -38 -66 -76 -59
-63 -66 -68 -80 -54 -23 23 -11 49 51 107 47 45 58 50 75 41 11 -6 20 -14 20
-18z m74 -47 c11 -8 18 -16 15 -18 -2 -1 -39 -35 -82 -75 -78 -73 -103 -85
-114 -56 -4 11 17 39 68 90 40 41 78 74 84 74 5 0 19 -7 29 -15z m56 -51 c0
-10 -121 -124 -131 -124 -22 0 -4 27 49 76 51 48 82 65 82 48z m67 -50 c4 -10
-12 -31 -48 -63 l-54 -48 14 -38 c12 -33 11 -39 -4 -54 -15 -15 -18 -14 -36 8
-11 13 -17 32 -14 42 3 9 1 20 -5 24 -22 14 -8 42 47 92 59 54 89 65 100 37z
m85 -352 c-17 -5 -44 19 -93 81 -63 79 -44 78 34 -3 42 -44 67 -76 59 -78z"/>
<path d="M3660 2504 c-73 -20 -90 -41 -90 -114 l0 -59 58 5 c71 6 180 24 208
35 19 7 21 12 13 59 -11 71 -30 90 -88 89 -25 0 -71 -7 -101 -15z"/>
<path d="M3151 2459 c-13 -5 -41 -25 -61 -43 -36 -33 -37 -34 -25 -70 16 -47
59 -103 86 -111 32 -11 84 3 113 30 60 56 9 207 -69 204 -11 0 -31 -5 -44 -10z
m73 -51 c15 -13 29 -37 32 -55 5 -26 2 -34 -19 -48 -36 -23 -78 -16 -97 17
-11 21 -12 30 -3 39 10 10 14 7 22 -13 15 -40 61 -47 75 -12 13 33 -34 72 -73
61 -23 -6 -30 18 -8 26 26 11 47 6 71 -15z m-15 -59 c-14 -8 -39 -1 -39 11 0
14 24 18 38 7 10 -8 10 -12 1 -18z"/>
<path d="M169 2374 c-9 -11 -9 -18 -1 -26 14 -14 42 -3 42 16 0 20 -27 27 -41
10z"/>
<path d="M4046 2174 c-13 -13 -16 -32 -14 -98 3 -79 4 -81 28 -81 25 0 25 0
25 94 0 99 -8 116 -39 85z"/>
<path d="M828 2119 c-21 -12 -24 -59 -6 -77 19 -19 55 -14 72 10 20 29 20 34
-4 58 -22 22 -37 24 -62 9z"/>
<path d="M3200 2100 c-11 -11 -20 -27 -20 -35 0 -21 36 -55 58 -55 24 0 52 31
52 57 0 23 -30 53 -53 53 -9 0 -26 -9 -37 -20z m50 -30 c0 -5 -5 -10 -11 -10
-5 0 -7 5 -4 10 3 6 8 10 11 10 2 0 4 -4 4 -10z"/>
<path d="M1076 1994 c-32 -32 -7 -78 39 -72 25 2 31 8 33 33 6 46 -40 71 -72
39z"/>
<path d="M2450 1900 c-27 -51 -80 -216 -86 -268 l-7 -57 23 20 c12 11 42 60
66 109 24 49 46 91 49 94 6 6 45 -28 45 -38 0 -4 -34 -58 -75 -119 -41 -62
-75 -118 -75 -126 0 -21 31 -27 56 -10 39 25 236 288 223 298 -2 2 -33 19 -69
39 -36 19 -82 45 -102 57 l-37 22 -11 -21z"/>
<path d="M3866 1495 c-37 -19 -55 -44 -56 -73 -1 -107 137 -161 204 -81 40 47
32 111 -18 151 -26 22 -91 23 -130 3z m94 -76 c18 -32 8 -62 -23 -73 -21 -8
-31 -6 -44 7 -14 14 -14 18 -2 33 8 9 13 25 11 36 -5 26 44 25 58 -3z"/>
<path d="M1753 1449 c-31 -11 -65 -84 -66 -138 -1 -102 58 -147 177 -138 39 3
96 11 126 18 206 45 126 269 -96 269 -45 0 -54 -3 -54 -17 0 -36 14 -45 46
-28 61 32 111 9 143 -65 27 -62 25 -105 -4 -105 -19 0 -27 11 -59 88 -17 40
-46 49 -81 23 -17 -12 -17 -17 -5 -60 11 -42 11 -49 -4 -64 -32 -32 -49 -4
-69 109 -10 57 -21 107 -25 110 -4 4 -17 3 -29 -2z m13 -40 c3 -6 1 -16 -5
-22 -9 -9 -14 -8 -21 3 -9 15 -4 30 10 30 5 0 12 -5 16 -11z"/>
<path d="M2133 1780 c-29 -12 -38 -50 -23 -94 14 -45 21 -49 66 -40 l37 7 -6
54 c-8 77 -24 93 -74 73z m40 -66 c9 -10 -4 -34 -18 -34 -17 0 -28 17 -20 30
7 11 28 13 38 4z"/>
<path d="M1500 1536 c-6 -8 -10 -25 -8 -38 4 -30 46 -38 65 -12 17 23 16 29
-3 48 -19 20 -38 20 -54 2z"/>
<path d="M2770 1476 c-16 -20 -9 -56 13 -70 15 -9 22 -7 38 13 23 28 24 35 3
55 -19 20 -38 20 -54 2z"/>
<path d="M3524 1235 c-12 -30 66 -125 103 -125 57 0 32 52 -55 112 -35 24 -43
27 -48 13z"/>
<path d="M2356 1259 c-35 -41 -34 -83 3 -120 33 -33 50 -35 90 -14 40 20 57
66 41 105 -27 66 -92 80 -134 29z m42 -61 c17 -17 15 -28 -6 -28 -24 0 -32 8
-25 26 6 17 15 18 31 2z"/>
<path d="M720 1065 c-7 -9 -9 -26 -5 -47 12 -56 67 -188 76 -182 5 3 9 52 9
109 0 81 -3 107 -16 119 -19 20 -48 20 -64 1z"/>
<path d="M2848 1009 c-22 -12 -23 -37 -3 -64 15 -19 15 -19 36 2 16 16 20 28
15 47 -7 28 -20 32 -48 15z"/>
<path d="M1733 965 c-9 -24 1 -27 15 -5 8 13 8 20 2 20 -6 0 -13 -7 -17 -15z"/>
<path d="M355 716 c-12 -9 -22 -40 -31 -96 -8 -46 -11 -86 -9 -89 4 -4 294 85
302 93 2 2 -202 91 -229 99 -9 3 -24 0 -33 -7z m133 -83 c2 -14 -4 -26 -19
-33 -18 -10 -25 -9 -42 8 -29 29 -16 54 25 50 25 -2 34 -8 36 -25z"/>
<path d="M636 593 c-3 -4 -72 -34 -154 -68 -81 -34 -147 -66 -146 -71 0 -10
44 -46 214 -176 114 -88 151 -103 178 -76 34 34 6 73 -89 126 -64 37 -109 75
-109 95 0 19 22 37 100 82 80 46 76 41 60 60 -18 21 -46 36 -54 28z"/>
<path d="M210 401 c-90 -48 -118 -124 -65 -176 40 -41 88 -34 180 25 l77 51
-76 59 c-41 33 -77 60 -78 60 -2 -1 -19 -9 -38 -19z m40 -76 c0 -8 -7 -15 -15
-15 -8 0 -15 7 -15 15 0 8 7 15 15 15 8 0 15 -7 15 -15z"/>
<path d="M2665 685 c-14 -13 -25 -36 -25 -50 0 -33 41 -75 73 -75 35 0 89 40
112 83 20 38 20 38 1 53 -12 8 -43 14 -78 14 -49 0 -63 -4 -83 -25z m103 -17
c-5 -15 -58 -24 -58 -9 0 11 17 19 43 20 11 1 17 -4 15 -11z m-18 -48 c0 -12
-28 -25 -36 -17 -9 9 6 27 22 27 8 0 14 -5 14 -10z"/>
<path d="M2944 296 c-11 -28 1 -51 25 -51 28 0 47 25 38 49 -8 20 -56 21 -63
2z"/>
<path d="M1040 242 c-48 -39 3 -102 55 -68 30 19 32 47 7 69 -24 22 -35 21
-62 -1z"/>
<path d="M150 5111 c0 -5 53 -65 119 -133 65 -67 128 -143 141 -168 35 -70 60
-100 81 -100 25 0 24 6 -11 65 -21 35 -30 63 -30 94 0 40 5 49 49 92 28 27 83
64 127 85 74 36 79 37 156 31 61 -5 87 -3 109 9 16 8 27 19 24 24 -10 17 -228
12 -251 -5 -25 -19 -65 -19 -90 0 -10 8 -36 15 -56 15 l-38 0 0 -43 c0 -50
-18 -80 -60 -97 -25 -10 -34 -10 -55 4 -30 20 -47 50 -54 96 l-6 35 -78 3
c-44 2 -77 -1 -77 -7z"/>
<path d="M366 5112 c-3 -5 -1 -26 5 -46 8 -30 14 -37 32 -34 18 2 23 11 25 46
3 41 2 42 -27 42 -16 0 -32 -4 -35 -8z"/>
<path d="M1446 5108 c-8 -25 -15 -173 -9 -200 7 -38 30 -39 123 -7 103 36 154
38 174 7 8 -13 30 -81 50 -153 52 -184 95 -300 122 -330 29 -32 70 -32 115 -2
40 27 289 370 319 441 25 57 37 146 23 171 -8 14 -15 9 -43 -35 -21 -32 -39
-50 -49 -48 -27 5 -24 37 9 79 31 38 32 41 15 59 -40 44 -85 25 -99 -42 -3
-16 -17 -33 -32 -41 l-28 -14 40 -25 c21 -14 51 -32 67 -42 68 -41 -2 -83 -85
-51 -14 5 -18 2 -18 -13 0 -41 -61 -58 -68 -18 -3 14 0 17 16 11 14 -4 24 0
31 12 8 15 3 23 -26 43 -44 30 -52 19 -54 -65 0 -33 -8 -103 -17 -155 -14 -77
-20 -95 -36 -98 -15 -3 -18 0 -13 19 4 13 7 88 7 166 l0 142 34 34 c26 27 33
40 29 61 -4 17 1 34 12 46 26 29 42 25 50 -12 l7 -32 19 23 c11 13 19 36 19
52 l0 29 -71 0 c-67 0 -70 -1 -64 -21 7 -20 5 -21 -23 -16 -30 6 -31 6 -43
-51 -21 -102 -74 -177 -120 -170 -34 4 -35 33 -3 71 33 40 50 78 58 140 l7 47
-63 0 c-55 0 -65 -3 -73 -22 -17 -36 -56 -57 -133 -70 -70 -12 -73 -11 -94 10
-20 19 -21 26 -11 52 l11 30 -39 0 c-23 0 -41 -5 -43 -12z m724 -317 c-6 -11
-26 -32 -45 -47 -34 -26 -35 -28 -35 -96 0 -51 -3 -69 -12 -66 -14 5 -23 106
-13 145 3 12 23 33 45 45 23 13 43 33 47 47 5 20 7 21 15 7 5 -10 5 -23 -2
-35z m-273 -56 c18 -87 28 -245 16 -245 -20 0 -90 280 -76 303 3 4 15 7 26 5
18 -2 24 -14 34 -63z m102 -244 c8 -14 7 -22 -4 -31 -17 -14 -35 -5 -35 19 0
34 24 42 39 12z"/>
<path d="M1603 5107 c-32 -7 -43 -15 -43 -28 0 -11 6 -19 13 -19 34 1 132 31
146 44 14 15 11 16 -29 15 -25 -1 -64 -6 -87 -12z"/>
<path d="M2966 5108 c32 -56 55 -59 139 -19 l60 29 -103 1 c-80 1 -102 -2 -96
-11z"/>
<path d="M3237 5038 c3 -46 7 -84 8 -86 2 -2 52 12 112 31 59 19 132 40 161
47 28 7 55 16 58 22 3 5 0 22 -6 39 -10 23 -19 29 -41 29 -26 0 -28 -2 -17
-19 9 -15 9 -23 -1 -35 -21 -25 -41 -19 -57 19 -13 33 -17 35 -60 35 -38 0
-45 -3 -40 -17 18 -66 18 -83 -2 -83 -16 0 -23 11 -32 50 -12 49 -13 50 -50
50 l-38 0 5 -82z"/>
<path d="M3604 5104 c3 -9 6 -22 6 -30 0 -16 33 -18 61 -4 10 6 19 20 19 30 0
17 -7 20 -46 20 -38 0 -45 -3 -40 -16z"/>
<path d="M4116 5093 c19 -80 61 -143 96 -143 49 0 137 68 157 123 16 42 14 47
-21 47 -26 0 -37 -6 -50 -30 -13 -22 -24 -30 -45 -30 -33 0 -73 25 -73 46 0 9
-11 14 -35 14 -33 0 -35 -1 -29 -27z"/>
<path d="M4258 5113 c7 -3 16 -2 19 1 4 3 -2 6 -13 5 -11 0 -14 -3 -6 -6z"/>
<path d="M4880 5113 c-57 -9 -67 -14 -78 -37 -14 -30 -8 -36 38 -36 35 0 106
40 125 69 6 11 -32 13 -85 4z"/>
<path d="M5027 5077 c-26 -23 -47 -47 -47 -52 0 -12 121 -135 133 -135 14 0 7
97 -8 110 -8 7 -15 16 -15 21 0 5 7 9 15 9 11 0 15 12 15 45 0 40 -2 45 -22
45 -13 -1 -44 -20 -71 -43z"/>
<path d="M882 5019 l-24 -9 20 -32 c44 -72 112 -210 112 -226 0 -25 -99 -191
-121 -202 -30 -16 -24 10 21 105 35 73 39 87 28 109 -6 15 -14 26 -18 26 -8 0
-164 -319 -159 -324 2 -2 40 12 84 31 44 19 97 41 118 50 28 12 55 40 104 107
37 50 67 100 67 110 1 13 -15 28 -44 46 -38 21 -52 39 -85 106 -40 81 -62 115
-74 113 -3 0 -16 -4 -29 -10z"/>
<path d="M0 4586 l0 -78 31 6 c17 3 35 6 40 6 25 0 1 57 -50 120 l-21 25 0
-79z"/>
<path d="M353 4560 c-41 -9 -83 -37 -83 -53 0 -8 10 -23 23 -34 21 -20 390
-203 408 -203 20 0 7 66 -23 122 -73 138 -193 200 -325 168z m171 -101 c-7
-11 -44 -12 -44 -1 0 4 5 13 12 20 13 13 42 -4 32 -19z"/>
<path d="M1731 4479 c-76 -15 -73 -2 -70 -293 1 -144 4 -267 7 -273 2 -7 19
-13 37 -13 18 0 35 6 37 13 2 6 1 55 -3 107 -4 52 -8 145 -8 207 l-1 111 31
26 c17 14 40 26 51 26 12 0 18 5 15 13 -2 6 -10 29 -18 50 -7 20 -18 37 -24
36 -5 -1 -30 -5 -54 -10z"/>
<path d="M5023 4412 c-90 -67 -160 -140 -168 -175 -10 -38 -2 -71 18 -75 10
-2 69 29 132 68 104 65 115 74 115 101 0 16 -3 29 -6 29 -8 0 -90 -57 -156
-108 -70 -54 -101 -52 -42 4 22 22 77 64 122 94 74 50 81 58 82 88 0 17 -4 32
-9 32 -5 0 -45 -26 -88 -58z"/>
<path d="M1061 4397 c-21 -10 -22 -16 -17 -56 3 -26 17 -91 30 -146 26 -106
23 -135 -15 -135 -23 0 -39 35 -39 88 0 44 -34 180 -49 195 -10 10 -23 -27
-41 -123 -22 -116 -8 -185 48 -232 45 -38 133 -68 198 -68 49 0 55 2 49 18 -4
9 -32 119 -63 244 -31 125 -61 227 -67 227 -5 0 -21 -5 -34 -12z"/>
<path d="M1433 4011 c-32 -26 -66 -57 -75 -68 -17 -18 -16 -19 19 -19 58 0 94
-61 57 -98 -12 -12 -20 -13 -35 -6 -23 13 -25 40 -3 40 9 0 14 6 12 13 -7 19
-69 15 -82 -6 -9 -15 -3 -25 42 -67 36 -35 52 -57 52 -75 0 -25 1 -25 29 -10
37 19 92 129 99 196 3 35 -2 57 -22 97 -15 29 -28 52 -31 52 -2 0 -30 -22 -62
-49z"/>
<path d="M810 3983 c-56 -63 -68 -90 -49 -107 18 -17 314 -138 434 -178 99
-33 137 -32 154 1 8 15 0 32 -42 89 l-52 71 -45 -7 c-72 -11 -122 -6 -175 17
-76 33 -126 71 -156 119 l-27 43 -42 -48z m99 -85 c70 -45 113 -79 107 -85 -4
-5 -183 83 -203 99 -16 13 -7 28 14 28 9 0 46 -19 82 -42z"/>
<path d="M1 3845 l0 -84 26 10 c46 17 83 43 89 62 8 24 -10 44 -68 73 l-47 24
0 -85z"/>
<path d="M4158 3640 c-31 -24 -77 -126 -121 -266 l-34 -110 47 -17 c54 -19
120 -79 148 -133 l19 -38 -1 100 c0 54 6 171 13 259 15 170 12 193 -28 215
-14 7 -25 5 -43 -10z m12 -147 c-1 -40 -27 -144 -39 -156 -6 -6 -13 -8 -17 -4
-7 7 15 144 28 170 13 26 28 21 28 -10z"/>
<path d="M252 3623 c-68 -33 -110 -117 -92 -184 15 -56 70 -131 115 -156 54
-31 252 -93 304 -96 l43 -2 44 100 c25 55 44 111 42 125 -3 21 -31 41 -183
127 -190 108 -213 116 -273 86z m3 -126 c-5 -25 -1 -39 16 -61 24 -31 49 -31
115 0 27 13 34 22 34 45 0 42 35 40 44 -2 3 -17 19 -47 36 -67 29 -35 39 -62
22 -62 -4 0 -25 18 -46 39 l-39 40 -58 -30 c-77 -38 -100 -37 -138 6 -36 41
-43 97 -13 114 28 17 33 13 27 -22z m404 -80 c8 -10 0 -35 -31 -100 -23 -48
-47 -87 -55 -87 -19 0 -16 18 13 91 15 35 30 74 35 87 10 25 22 28 38 9z
m-261 -79 c4 -21 -34 -34 -54 -17 -11 9 -12 15 -2 26 15 18 52 13 56 -9z"/>
<path d="M5059 3412 c-24 -16 -61 -47 -81 -70 -41 -45 -74 -102 -59 -102 5 0
53 28 105 62 94 60 96 62 96 100 0 21 -4 38 -8 38 -4 0 -28 -13 -53 -28z"/>
<path d="M3713 3330 c-64 -39 -71 -98 -18 -150 28 -27 44 -34 88 -38 49 -4 56
-2 76 24 32 41 36 69 14 106 -19 33 -84 78 -113 78 -8 0 -29 -9 -47 -20z"/>
<path d="M5033 3247 c-46 -34 -83 -68 -83 -75 0 -26 30 -22 99 12 l71 36 0 45
c0 25 -1 45 -2 45 -2 0 -40 -28 -85 -63z"/>
<path d="M3950 3144 c0 -28 29 -72 72 -108 34 -30 49 -36 78 -34 27 2 36 8 38
25 5 32 -26 90 -60 114 -28 21 -30 21 -49 3 -19 -17 -22 -18 -50 -2 -25 15
-29 15 -29 2z"/>
<path d="M3738 3053 c-11 -13 -6 -22 32 -55 53 -48 176 -118 206 -118 31 0 48
24 35 48 -18 34 -146 106 -233 132 -20 6 -30 4 -40 -7z"/>
<path d="M0 2832 l0 -72 34 22 35 23 -21 35 c-43 72 -48 71 -48 -8z"/>
<path d="M58 2750 c-14 -9 -15 -16 -6 -40 13 -38 5 -70 -27 -108 -15 -18 -25
-42 -25 -61 l0 -31 39 20 c58 29 81 64 81 120 0 55 -17 110 -33 110 -7 0 -20
-5 -29 -10z"/>
<path d="M4877 2733 c-3 -5 -6 -43 -8 -85 -4 -84 6 -105 64 -135 26 -13 33
-12 93 16 35 16 64 32 64 35 0 7 -170 155 -191 167 -10 5 -20 6 -22 2z m65
-100 c21 -19 24 -43 4 -43 -12 0 -46 40 -46 55 0 11 24 4 42 -12z"/>
<path d="M387 2723 c-15 -14 -6 -53 14 -64 18 -9 25 -7 41 9 28 28 16 62 -21
62 -15 0 -31 -3 -34 -7z"/>
<path d="M1 2681 c-1 -27 2 -32 11 -23 8 8 8 17 0 34 -10 22 -11 21 -11 -11z"/>
<path d="M5011 2381 c-106 -56 -157 -100 -170 -148 -20 -71 32 -150 105 -159
31 -4 53 2 104 29 61 31 65 36 68 71 l3 37 -25 -16 c-28 -19 -46 -13 -46 15 0
12 12 23 35 31 l35 13 0 88 c0 48 -3 88 -7 88 -5 0 -50 -23 -102 -49z m87 -81
c20 0 -7 -36 -29 -37 -19 -2 -59 40 -59 63 0 23 34 22 55 -3 12 -12 26 -23 33
-23z m-104 -62 c21 -30 20 -43 -6 -68 -28 -26 -53 -25 -72 2 -18 26 -13 36 9
18 8 -7 22 -10 30 -6 22 8 18 37 -5 43 -16 4 -18 8 -9 19 17 20 36 17 53 -8z"/>
<path d="M85 2180 c-38 -11 -73 -20 -77 -20 -5 0 -8 -18 -8 -39 l0 -39 50 19
c28 10 56 19 63 19 19 0 54 -147 40 -168 -5 -10 -42 -30 -81 -46 -70 -28 -72
-29 -72 -63 0 -34 1 -34 33 -28 51 11 184 64 196 79 8 9 8 44 0 122 -16 168
-17 171 -42 178 -27 7 -19 8 -102 -14z"/>
<path d="M68 2069 c-23 -9 -26 -15 -21 -39 4 -25 1 -31 -21 -41 -17 -8 -26
-20 -26 -35 l0 -23 47 20 c57 24 63 32 63 87 0 45 -1 46 -42 31z"/>
<path d="M0 2036 c0 -9 5 -16 10 -16 6 0 10 4 10 9 0 6 -4 13 -10 16 -5 3 -10
-1 -10 -9z"/>
<path d="M683 1810 c-81 -19 -150 -110 -139 -183 15 -95 72 -142 172 -142 96
0 165 54 185 145 16 73 -30 148 -108 176 -42 15 -63 16 -110 4z m23 -155 c28
-119 4 -146 -27 -30 -23 88 -22 87 -2 83 12 -2 22 -20 29 -53z m139 -9 c28
-28 24 -56 -6 -56 -17 0 -59 52 -59 73 0 16 43 5 65 -17z m-197 -37 c4 -34
-32 -68 -56 -53 -40 26 -20 87 27 82 19 -2 27 -9 29 -29z"/>
<path d="M593 1614 c-7 -3 -9 -12 -6 -19 4 -11 10 -12 24 -4 34 18 19 37 -18
23z"/>
<path d="M67 1673 l-67 -4 0 -90 c0 -81 2 -90 18 -85 17 6 160 36 168 36 2 0
4 -7 4 -15 0 -15 -4 -17 -113 -39 -71 -14 -85 -21 -73 -33 9 -9 166 23 214 43
l35 14 -5 68 c-3 37 -10 78 -17 90 -13 23 -5 23 -164 15z m98 -42 c9 -15 -5
-19 -79 -22 -47 -3 -70 0 -73 8 -7 19 140 32 152 14z m23 -53 c-5 -13 -135
-34 -146 -24 -9 10 6 19 45 26 63 13 105 11 101 -2z"/>
<path d="M4137 1623 c-22 -11 -28 -20 -25 -41 6 -52 88 -38 88 14 0 33 -28 46
-63 27z"/>
<path d="M388 1378 c-97 -33 -100 -37 -72 -108 10 -25 23 -40 33 -40 9 0 55
18 100 40 l84 41 -7 37 c-5 32 -28 64 -45 61 -3 0 -45 -14 -93 -31z m50 -40
c20 -20 14 -47 -13 -54 -36 -9 -55 2 -55 30 0 32 45 47 68 24z"/>
<path d="M4512 1004 c-28 -19 -30 -54 -3 -54 45 0 118 -90 100 -123 -15 -25
-32 -21 -66 18 -17 19 -35 35 -40 35 -23 0 -45 -29 -50 -67 -4 -33 -1 -45 17
-63 24 -24 17 -24 236 -4 47 4 78 3 93 -6 12 -6 -31 51 -98 128 -137 159 -146
166 -189 136z"/>
<path d="M3143 978 c-51 -24 -107 -84 -98 -105 3 -9 12 -59 21 -112 14 -85 43
-161 62 -161 7 0 324 102 331 107 10 6 -24 107 -42 124 -35 32 -54 24 -72 -30
-16 -49 -43 -71 -86 -71 -24 0 -69 43 -69 65 0 18 52 75 69 75 18 0 12 -29 -9
-42 -24 -16 -26 -53 -3 -62 28 -11 48 20 47 72 0 45 -25 124 -46 149 -15 19
-57 15 -105 -9z"/>
<path d="M16 957 c-17 -12 -16 -15 2 -62 11 -28 22 -66 26 -85 5 -29 41 -70
51 -58 1 2 5 51 9 111 l6 107 -38 0 c-21 0 -46 -6 -56 -13z"/>
<path d="M1093 931 l-22 -39 27 -34 c58 -72 225 -258 232 -258 5 0 18 17 30
38 20 32 21 40 9 59 -18 27 -241 273 -248 273 -3 0 -16 -18 -28 -39z"/>
<path d="M3305 583 c-60 -19 -114 -39 -120 -44 -6 -6 2 -21 22 -41 31 -30 34
-31 71 -20 22 7 60 12 84 12 58 0 92 -32 107 -98 5 -26 15 -71 21 -100 12 -53
24 -61 44 -30 7 12 1 37 -23 94 -26 62 -34 97 -38 171 -6 92 -6 93 -32 92 -14
0 -75 -16 -136 -36z"/>
<path d="M4662 557 c-15 -15 -22 -36 -22 -61 0 -47 14 -74 46 -86 20 -8 29 -6
46 10 12 11 25 20 28 20 10 0 30 48 30 71 0 30 -44 69 -78 69 -17 0 -37 -9
-50 -23z m63 -68 c0 -7 -8 -15 -17 -17 -18 -3 -25 18 -11 32 10 10 28 1 28
-15z"/>
<path d="M5050 481 c-64 -57 -64 -58 -41 -70 21 -12 23 -18 17 -54 -4 -23 -11
-80 -15 -126 -10 -100 -22 -115 -88 -105 -24 3 -53 4 -65 1 -26 -7 -52 -46
-63 -95 l-7 -32 89 1 88 0 -42 22 c-28 14 -43 28 -43 40 0 19 10 19 71 1 9 -2
47 23 93 62 l78 67 -6 41 c-4 23 -12 87 -18 144 -10 93 -9 104 7 122 9 10 15
23 14 29 -2 6 -33 -16 -69 -48z"/>
<path d="M3300 399 c-68 -27 -89 -80 -72 -178 8 -45 21 -73 50 -110 22 -28 46
-64 53 -81 8 -17 22 -30 31 -30 10 0 18 3 18 6 0 4 -14 65 -31 136 -34 146
-35 183 -4 183 15 0 21 -8 23 -30 2 -16 14 -87 28 -158 13 -70 24 -129 24
-132 0 -3 14 -5 30 -5 17 0 30 2 30 4 0 2 -7 31 -15 63 -10 38 -12 68 -6 88 5
20 4 39 -4 55 -7 14 -20 57 -29 95 -10 39 -25 78 -33 88 -18 19 -54 21 -93 6z"/>
<path d="M2353 289 c-13 -4 -35 -32 -50 -60 -16 -29 -47 -80 -70 -114 -30 -46
-38 -66 -30 -74 6 -6 17 -11 24 -11 20 0 63 53 73 90 30 118 31 121 48 118 37
-8 -8 -155 -63 -206 l-35 -32 38 0 c35 1 39 5 80 71 62 98 68 119 54 168 -14
46 -37 63 -69 50z"/>
<path d="M3616 222 c-3 -5 4 -32 14 -60 11 -29 23 -76 26 -107 7 -54 7 -55 40
-55 21 0 34 5 34 13 0 23 -37 152 -50 177 -19 37 -51 52 -64 32z"/>
<path d="M3537 199 c-45 -26 -50 -76 -17 -166 11 -30 15 -33 56 -33 24 0 44 4
44 9 0 19 -29 147 -39 174 -11 29 -17 32 -44 16z"/>
<path d="M4245 133 c-85 -18 -134 -55 -148 -110 -5 -21 -2 -23 42 -23 42 0 48
3 58 30 7 18 21 32 37 36 35 9 54 0 74 -36 12 -22 24 -30 45 -30 15 0 27 2 27
5 0 2 -9 28 -20 58 -25 67 -53 84 -115 70z"/>
<path d="M2685 63 l-54 -58 30 -3 c17 -2 41 4 54 12 30 20 45 20 45 1 0 -8 9
-15 20 -15 17 0 20 7 20 43 0 44 -21 77 -49 77 -7 0 -37 -26 -66 -57z"/>
<path d="M3047 96 c-56 -15 -87 -41 -87 -73 0 -29 22 -30 75 -3 22 11 46 20
55 20 9 0 33 -9 55 -20 36 -18 95 -27 95 -15 0 16 -36 57 -64 74 -45 27 -75
31 -129 17z"/>
<path d="M5057 50 l-59 -50 61 0 61 0 0 50 c0 28 -1 50 -2 50 -2 -1 -29 -23
-61 -50z"/>
<path d="M0 31 c0 -27 4 -31 25 -31 22 0 24 3 16 18 -5 10 -17 24 -25 32 -14
11 -16 8 -16 -19z"/>
<path d="M380 16 c0 -9 5 -16 10 -16 6 0 10 4 10 9 0 6 -4 13 -10 16 -5 3 -10
-1 -10 -9z"/>
<path d="M4250 15 c-11 -13 -8 -15 20 -15 21 0 30 4 28 13 -7 18 -33 20 -48 2z"/>
<path d="M1900 10 c-11 -7 -7 -10 18 -10 20 0 31 4 27 10 -8 13 -26 13 -45 0z"/>
<path d="M588 3 c7 -3 16 -2 19 1 4 3 -2 6 -13 5 -11 0 -14 -3 -6 -6z"/>
</g>
</svg>